<?xml version="1.0" encoding="UTF-8" standalone="no"?>
<!-- Generator: Adobe Illustrator 17.0.1, SVG Export Plug-In . SVG Version: 6.00 Build 0)  -->

<svg
   xmlns:dc="http://purl.org/dc/elements/1.1/"
   xmlns:cc="http://creativecommons.org/ns#"
   xmlns:rdf="http://www.w3.org/1999/02/22-rdf-syntax-ns#"
   xmlns:svg="http://www.w3.org/2000/svg"
   xmlns="http://www.w3.org/2000/svg"
   xmlns:xlink="http://www.w3.org/1999/xlink"
   xmlns:sodipodi="http://sodipodi.sourceforge.net/DTD/sodipodi-0.dtd"
   xmlns:inkscape="http://www.inkscape.org/namespaces/inkscape"
   version="1.1"
   id="Layer_1"
   x="0px"
   y="0px"
   width="233"
   height="188"
   viewBox="0 0 233 188"
   enable-background="new 0 0 185 188"
   xml:space="preserve"
   sodipodi:docname="ari-format.svg"
   inkscape:version="0.92.3 (2405546, 2018-03-11)"><metadata
   id="metadata4181"><rdf:RDF><cc:Work
       rdf:about=""><dc:format>image/svg+xml</dc:format><dc:type
         rdf:resource="http://purl.org/dc/dcmitype/StillImage" /><dc:title></dc:title></cc:Work></rdf:RDF></metadata><defs
   id="defs4179"><linearGradient
     inkscape:collect="always"
     id="linearGradient5684"><stop
       style="stop-color:#000000;stop-opacity:1;"
       offset="0"
       id="stop5680" /><stop
       style="stop-color:#000000;stop-opacity:0;"
       offset="1"
       id="stop5682" /></linearGradient><radialGradient
     id="SVGID_9_"
     cx="-310.26501"
     cy="192.9653"
     r="20.113701"
     gradientTransform="matrix(0.498,0,0,0.498,172.2891,79.7388)"
     gradientUnits="userSpaceOnUse"><stop
       offset="0"
       style="stop-color:#FFCF4F"
       id="stop4146" /><stop
       offset="1"
       style="stop-color:#F4C236"
       id="stop4148" /></radialGradient><radialGradient
     id="SVGID_10_"
     cx="-322.31671"
     cy="182.75079"
     r="27.658199"
     gradientTransform="matrix(0.498,0,0,0.498,172.2891,79.7388)"
     gradientUnits="userSpaceOnUse"><stop
       offset="0"
       style="stop-color:#08A960"
       id="stop4153" /><stop
       offset="1"
       style="stop-color:#07914B"
       id="stop4155" /></radialGradient><radialGradient
     id="SVGID_11_"
     cx="-312.86511"
     cy="143.06911"
     r="40.540001"
     gradientTransform="matrix(0.498,0,0,0.498,172.2891,79.7388)"
     gradientUnits="userSpaceOnUse"><stop
       offset="0"
       style="stop-color:#567FC0"
       id="stop4160" /><stop
       offset="1"
       style="stop-color:#557FC0"
       id="stop4162" /></radialGradient><radialGradient
     id="SVGID_12_"
     cx="-300.80109"
     cy="133.1039"
     r="33.058399"
     gradientTransform="matrix(0.498,0,0,0.498,172.2891,79.7388)"
     gradientUnits="userSpaceOnUse"><stop
       offset="0"
       style="stop-color:#E14C40"
       id="stop4167" /><stop
       offset="1"
       style="stop-color:#CD392D"
       id="stop4169" /></radialGradient><radialGradient
     id="SVGID_5_"
     cx="-310.58301"
     cy="66.4552"
     r="20.113701"
     gradientTransform="matrix(0.498,0,0,0.498,172.2891,79.7388)"
     gradientUnits="userSpaceOnUse"><stop
       offset="0"
       style="stop-color:#CCCCCC"
       id="stop4070" /><stop
       offset="1"
       style="stop-color:#C0C0C0"
       id="stop4072" /></radialGradient><radialGradient
     id="SVGID_6_"
     cx="-322.6347"
     cy="56.2407"
     r="27.658199"
     gradientTransform="matrix(0.498,0,0,0.498,172.2891,79.7388)"
     gradientUnits="userSpaceOnUse"><stop
       offset="0"
       style="stop-color:#A0A0A0"
       id="stop4077" /><stop
       offset="1"
       style="stop-color:#7B7B7B"
       id="stop4079" /></radialGradient><radialGradient
     id="SVGID_7_"
     cx="-313.18311"
     cy="16.559"
     r="40.540001"
     gradientTransform="matrix(0.498,0,0,0.498,172.2891,79.7388)"
     gradientUnits="userSpaceOnUse"><stop
       offset="0"
       style="stop-color:#848484"
       id="stop4084" /><stop
       offset="1"
       style="stop-color:#838383"
       id="stop4086" /></radialGradient><radialGradient
     id="SVGID_8_"
     cx="-301.11911"
     cy="6.5938001"
     r="33.058399"
     gradientTransform="matrix(0.498,0,0,0.498,172.2891,79.7388)"
     gradientUnits="userSpaceOnUse"><stop
       offset="0"
       style="stop-color:#626262"
       id="stop4091" /><stop
       offset="1"
       style="stop-color:#474747"
       id="stop4093" /></radialGradient><radialGradient
     id="SVGID_1_"
     cx="-310.58301"
     cy="-60.055"
     r="20.113701"
     gradientTransform="matrix(0.498,0,0,0.498,172.2891,79.7388)"
     gradientUnits="userSpaceOnUse"><stop
       offset="0"
       style="stop-color:#FFCF4F"
       id="stop3994" /><stop
       offset="1"
       style="stop-color:#F4C236"
       id="stop3996" /></radialGradient><radialGradient
     id="SVGID_2_"
     cx="-322.6347"
     cy="-70.269501"
     r="27.658199"
     gradientTransform="matrix(0.498,0,0,0.498,172.2891,79.7388)"
     gradientUnits="userSpaceOnUse"><stop
       offset="0"
       style="stop-color:#08A960"
       id="stop4001" /><stop
       offset="1"
       style="stop-color:#07914B"
       id="stop4003" /></radialGradient><radialGradient
     id="SVGID_3_"
     cx="-313.18311"
     cy="-109.9511"
     r="40.540001"
     gradientTransform="matrix(0.498,0,0,0.498,172.2891,79.7388)"
     gradientUnits="userSpaceOnUse"><stop
       offset="0"
       style="stop-color:#567FC0"
       id="stop4008" /><stop
       offset="1"
       style="stop-color:#557FC0"
       id="stop4010" /></radialGradient><radialGradient
     id="SVGID_4_"
     cx="-301.11911"
     cy="-119.9164"
     r="33.058399"
     gradientTransform="matrix(0.498,0,0,0.498,172.2891,79.7388)"
     gradientUnits="userSpaceOnUse"><stop
       offset="0"
       style="stop-color:#E14C40"
       id="stop4015" /><stop
       offset="1"
       style="stop-color:#CD392D"
       id="stop4017" /></radialGradient><linearGradient
     inkscape:collect="always"
     xlink:href="#linearGradient5684"
     id="linearGradient5686"
     x1="125.49807"
     y1="29.972771"
     x2="232.41994"
     y2="29.972771"
     gradientUnits="userSpaceOnUse" /></defs><sodipodi:namedview
   pagecolor="#ffffff"
   bordercolor="#666666"
   borderopacity="1"
   objecttolerance="10"
   gridtolerance="10"
   guidetolerance="10"
   inkscape:pageopacity="0"
   inkscape:pageshadow="2"
   inkscape:window-width="3240"
   inkscape:window-height="2050"
   id="namedview4177"
   showgrid="false"
   inkscape:zoom="9.4148936"
   inkscape:cx="118.33485"
   inkscape:cy="85.502825"
   inkscape:window-x="-12"
   inkscape:window-y="-12"
   inkscape:window-maximized="1"
   inkscape:current-layer="layer1" />



<g
   inkscape:groupmode="layer"
   id="layer2"
   inkscape:label="old logos"
   style="display:none"><g
     transform="translate(-0.13738804,-0.21242942)"
     id="g4022"><g
       id="g3962"><path
         d="m 115.912,17.967 c 0,2.676 -0.731,4.738 -2.193,6.186 -1.462,1.448 -3.518,2.171 -6.166,2.171 h -5.148 V 10.29 h 5.507 c 2.554,0 4.526,0.658 5.916,1.974 1.389,1.316 2.084,3.217 2.084,5.703 z m -4.462,0.154 c 0,-1.469 -0.289,-2.559 -0.866,-3.268 -0.577,-0.709 -1.453,-1.064 -2.628,-1.064 h -1.251 v 8.982 h 0.958 c 1.306,0 2.264,-0.382 2.874,-1.146 0.61,-0.764 0.913,-1.932 0.913,-3.504 z"
         id="path3948"
         inkscape:connector-curvature="0"
         style="fill:#4e4e4e" /><path
         d="m 123.129,26.544 c -2.053,0 -3.646,-0.55 -4.783,-1.65 -1.136,-1.101 -1.704,-2.667 -1.704,-4.7 0,-2.099 0.526,-3.709 1.578,-4.832 1.053,-1.122 2.555,-1.684 4.506,-1.684 1.857,0 3.293,0.488 4.305,1.464 1.012,0.976 1.52,2.382 1.52,4.217 v 1.908 h -7.609 c 0.029,0.695 0.281,1.239 0.758,1.634 0.475,0.395 1.121,0.592 1.941,0.592 0.748,0 1.436,-0.071 2.063,-0.214 0.629,-0.143 1.309,-0.386 2.041,-0.729 v 3.082 c -0.668,0.344 -1.357,0.581 -2.068,0.713 -0.712,0.133 -1.56,0.199 -2.548,0.199 z m -0.25,-9.948 c -0.5,0 -0.92,0.159 -1.256,0.477 -0.338,0.318 -0.537,0.817 -0.594,1.497 h 3.656 c -0.014,-0.599 -0.184,-1.078 -0.506,-1.437 -0.322,-0.359 -0.755,-0.537 -1.3,-0.537 z"
         id="path3950"
         inkscape:connector-curvature="0"
         style="fill:#4e4e4e" /><path
         d="m 132.851,26.325 -4.702,-12.426 h 4.44 l 2.09,7.348 c 0.008,0.037 0.022,0.099 0.044,0.187 0.022,0.088 0.043,0.192 0.065,0.313 0.021,0.121 0.041,0.249 0.06,0.384 0.018,0.136 0.027,0.262 0.027,0.378 h 0.076 c 0,-0.38 0.065,-0.793 0.195,-1.239 l 2.188,-7.37 h 4.43 l -4.702,12.426 h -4.211 z"
         id="path3952"
         inkscape:connector-curvature="0"
         style="fill:#4e4e4e" /><path
         d="m 146.381,26.325 h -4.234 V 10.29 h 9.404 v 3.477 h -5.17 v 3.06 h 4.767 v 3.477 h -4.767 z"
         id="path3954"
         inkscape:connector-curvature="0"
         style="fill:#4e4e4e" /><path
         d="m 158.528,26.544 c -2.054,0 -3.647,-0.55 -4.783,-1.65 -1.136,-1.1 -1.703,-2.667 -1.703,-4.7 0,-2.099 0.525,-3.709 1.578,-4.832 1.052,-1.122 2.554,-1.684 4.506,-1.684 1.857,0 3.292,0.488 4.305,1.464 1.012,0.976 1.519,2.382 1.519,4.217 v 1.908 h -7.608 c 0.029,0.695 0.281,1.239 0.757,1.634 0.475,0.395 1.122,0.592 1.942,0.592 0.747,0 1.435,-0.071 2.063,-0.214 0.628,-0.143 1.308,-0.386 2.041,-0.729 v 3.082 c -0.668,0.344 -1.357,0.581 -2.068,0.713 -0.713,0.133 -1.561,0.199 -2.549,0.199 z m -0.25,-9.948 c -0.501,0 -0.92,0.159 -1.257,0.477 -0.338,0.318 -0.536,0.817 -0.594,1.497 h 3.657 c -0.015,-0.599 -0.184,-1.078 -0.506,-1.437 -0.322,-0.358 -0.756,-0.537 -1.3,-0.537 z"
         id="path3956"
         inkscape:connector-curvature="0"
         style="fill:#4e4e4e" /><path
         d="m 174.541,22.508 c 0,1.331 -0.45,2.336 -1.35,3.016 -0.9,0.68 -2.191,1.02 -3.875,1.02 -0.914,0 -1.709,-0.049 -2.384,-0.148 -0.675,-0.099 -1.364,-0.28 -2.067,-0.543 V 22.42 c 0.66,0.292 1.384,0.534 2.171,0.724 0.787,0.19 1.489,0.285 2.106,0.285 0.921,0 1.382,-0.212 1.382,-0.636 0,-0.219 -0.129,-0.415 -0.386,-0.586 -0.258,-0.172 -1.007,-0.506 -2.248,-1.004 -1.132,-0.468 -1.923,-1 -2.373,-1.596 -0.449,-0.596 -0.675,-1.351 -0.675,-2.265 0,-1.155 0.442,-2.055 1.328,-2.698 0.885,-0.644 2.137,-0.965 3.755,-0.965 0.813,0 1.576,0.09 2.291,0.269 0.715,0.179 1.457,0.44 2.227,0.784 l -1.154,2.764 c -0.565,-0.256 -1.164,-0.473 -1.796,-0.652 -0.631,-0.179 -1.146,-0.269 -1.546,-0.269 -0.696,0 -1.044,0.172 -1.044,0.516 0,0.212 0.121,0.393 0.364,0.543 0.243,0.15 0.945,0.455 2.106,0.916 0.863,0.358 1.507,0.709 1.932,1.053 0.425,0.344 0.736,0.748 0.936,1.212 0.2,0.463 0.3,1.028 0.3,1.693 z"
         id="path3958"
         inkscape:connector-curvature="0"
         style="fill:#4e4e4e" /><path
         d="m 181.605,23.155 c 0.573,0 1.259,-0.143 2.058,-0.428 v 3.126 c -0.573,0.249 -1.119,0.426 -1.639,0.532 -0.519,0.105 -1.126,0.159 -1.822,0.159 -1.43,0 -2.46,-0.353 -3.092,-1.058 -0.631,-0.706 -0.946,-1.79 -0.946,-3.252 v -5.122 h -1.491 v -1.744 l 1.894,-1.349 1.1,-2.61 h 2.786 v 2.49 h 3.025 v 3.213 h -3.025 v 4.837 c -0.001,0.804 0.384,1.206 1.152,1.206 z"
         id="path3960"
         inkscape:connector-curvature="0"
         style="fill:#4e4e4e" /></g><g
       id="g3984"><path
         d="M 60.282,47.886 H 50.031 v -1.841 l 3.9,-3.92 c 1.151,-1.179 1.915,-2.016 2.291,-2.509 0.376,-0.493 0.65,-0.957 0.822,-1.391 0.172,-0.434 0.259,-0.9 0.259,-1.396 0,-0.683 -0.205,-1.221 -0.616,-1.614 -0.41,-0.393 -0.978,-0.59 -1.702,-0.59 -0.579,0 -1.14,0.107 -1.681,0.321 -0.542,0.214 -1.167,0.6 -1.877,1.159 L 50.114,34.5 c 0.841,-0.71 1.659,-1.214 2.452,-1.51 0.793,-0.296 1.638,-0.445 2.535,-0.445 1.407,0 2.534,0.367 3.382,1.102 0.848,0.735 1.272,1.723 1.272,2.964 0,0.683 -0.123,1.331 -0.367,1.945 -0.245,0.614 -0.621,1.247 -1.127,1.898 -0.507,0.652 -1.35,1.533 -2.529,2.643 l -2.627,2.545 v 0.104 h 7.179 v 2.14 z"
         id="path3964"
         inkscape:connector-curvature="0"
         style="fill:#4e4e4e" /><path
         d="m 71.104,40.324 c 0,2.628 -0.422,4.58 -1.267,5.855 -0.845,1.276 -2.136,1.914 -3.874,1.914 -1.683,0 -2.958,-0.659 -3.827,-1.976 -0.869,-1.317 -1.304,-3.248 -1.304,-5.793 0,-2.668 0.422,-4.636 1.268,-5.901 0.844,-1.265 2.132,-1.898 3.863,-1.898 1.689,0 2.969,0.662 3.838,1.986 0.868,1.323 1.303,3.261 1.303,5.813 z m -7.811,0 c 0,2.063 0.212,3.535 0.636,4.417 0.424,0.883 1.102,1.324 2.033,1.324 0.931,0 1.612,-0.448 2.043,-1.345 0.431,-0.896 0.646,-2.362 0.646,-4.396 0,-2.027 -0.215,-3.495 -0.646,-4.401 -0.431,-0.907 -1.112,-1.36 -2.043,-1.36 -0.931,0 -1.608,0.445 -2.033,1.334 -0.423,0.889 -0.636,2.365 -0.636,4.427 z"
         id="path3966"
         inkscape:connector-curvature="0"
         style="fill:#4e4e4e" /><path
         d="m 78.812,47.886 h -2.431 v -9.765 c 0,-1.166 0.027,-2.089 0.083,-2.772 -0.159,0.166 -0.354,0.349 -0.584,0.548 -0.231,0.2 -1.005,0.834 -2.323,1.903 l -1.22,-1.541 4.448,-3.497 h 2.028 v 15.124 z"
         id="path3968"
         inkscape:connector-curvature="0"
         style="fill:#4e4e4e" /><path
         d="m 93.285,44.586 h -2.038 v 3.3 h -2.369 v -3.3 h -6.91 v -1.873 l 6.91,-9.993 h 2.369 v 9.848 h 2.038 z m -4.407,-2.017 v -3.796 c 0,-1.352 0.035,-2.458 0.104,-3.321 h -0.083 c -0.193,0.455 -0.496,1.007 -0.91,1.655 l -3.755,5.462 z"
         id="path3970"
         inkscape:connector-curvature="0"
         style="fill:#4e4e4e" /><path
         d="m 107.335,43.779 c 0,1.345 -0.486,2.4 -1.458,3.166 -0.973,0.766 -2.314,1.148 -4.024,1.148 -1.71,0 -3.11,-0.266 -4.2,-0.797 v -2.337 c 0.689,0.324 1.422,0.579 2.198,0.765 0.776,0.187 1.499,0.279 2.167,0.279 0.979,0 1.702,-0.186 2.167,-0.559 0.465,-0.372 0.698,-0.872 0.698,-1.5 0,-0.565 -0.214,-1.044 -0.641,-1.438 -0.428,-0.393 -1.311,-0.859 -2.648,-1.396 -1.379,-0.559 -2.352,-1.197 -2.917,-1.914 -0.565,-0.717 -0.848,-1.579 -0.848,-2.586 0,-1.262 0.448,-2.255 1.345,-2.979 0.897,-0.724 2.1,-1.086 3.61,-1.086 1.448,0 2.89,0.317 4.324,0.952 l -0.786,2.017 c -1.345,-0.565 -2.545,-0.848 -3.6,-0.848 -0.8,0 -1.407,0.174 -1.82,0.522 -0.414,0.348 -0.621,0.809 -0.621,1.381 0,0.393 0.083,0.729 0.248,1.009 0.165,0.28 0.438,0.543 0.817,0.791 0.379,0.249 1.062,0.576 2.048,0.983 1.11,0.462 1.924,0.893 2.441,1.293 0.517,0.4 0.896,0.852 1.138,1.355 0.241,0.503 0.362,1.096 0.362,1.779 z"
         id="path3972"
         inkscape:connector-curvature="0"
         style="fill:#4e4e4e" /><path
         d="m 113.729,48.093 c -1.779,0 -3.171,-0.519 -4.174,-1.557 -1.003,-1.038 -1.505,-2.467 -1.505,-4.288 0,-1.869 0.465,-3.338 1.396,-4.407 0.931,-1.069 2.21,-1.604 3.838,-1.604 1.51,0 2.703,0.459 3.579,1.376 0.875,0.917 1.313,2.179 1.313,3.786 v 1.313 h -7.624 c 0.034,1.11 0.334,1.964 0.9,2.561 0.565,0.596 1.362,0.895 2.39,0.895 0.676,0 1.305,-0.063 1.888,-0.191 0.583,-0.127 1.208,-0.339 1.877,-0.636 v 1.976 c -0.593,0.283 -1.193,0.483 -1.8,0.6 -0.607,0.117 -1.298,0.176 -2.078,0.176 z m -0.444,-10.014 c -0.772,0 -1.392,0.245 -1.857,0.734 -0.465,0.49 -0.743,1.204 -0.833,2.142 h 5.193 c -0.014,-0.945 -0.242,-1.66 -0.683,-2.146 -0.441,-0.486 -1.048,-0.73 -1.82,-0.73 z"
         id="path3974"
         inkscape:connector-curvature="0"
         style="fill:#4e4e4e" /><path
         d="m 126.826,47.886 -0.486,-1.593 h -0.082 c -0.553,0.697 -1.107,1.171 -1.666,1.422 -0.559,0.252 -1.275,0.378 -2.152,0.378 -1.123,0 -2,-0.304 -2.631,-0.911 -0.633,-0.606 -0.947,-1.465 -0.947,-2.576 0,-1.179 0.438,-2.069 1.314,-2.669 0.875,-0.6 2.209,-0.927 4.002,-0.982 l 1.977,-0.062 v -0.61 c 0,-0.731 -0.172,-1.278 -0.512,-1.64 -0.342,-0.362 -0.871,-0.543 -1.588,-0.543 -0.586,0 -1.148,0.086 -1.688,0.258 -0.537,0.172 -1.055,0.376 -1.551,0.61 l -0.787,-1.738 c 0.621,-0.324 1.301,-0.57 2.039,-0.74 0.738,-0.169 1.434,-0.253 2.09,-0.253 1.455,0 2.553,0.317 3.295,0.952 0.74,0.635 1.111,1.631 1.111,2.99 v 7.707 z m -3.621,-1.656 c 0.883,0 1.592,-0.246 2.127,-0.739 0.533,-0.493 0.801,-1.185 0.801,-2.074 v -0.993 l -1.469,0.062 c -1.145,0.042 -1.977,0.233 -2.498,0.574 -0.521,0.341 -0.781,0.864 -0.781,1.567 0,0.51 0.152,0.905 0.455,1.184 0.305,0.28 0.76,0.419 1.365,0.419 z"
         id="path3976"
         inkscape:connector-curvature="0"
         style="fill:#4e4e4e" /><path
         d="m 138.372,44.627 c 0,1.117 -0.407,1.974 -1.221,2.57 -0.813,0.597 -1.979,0.895 -3.496,0.895 -1.524,0 -2.749,-0.231 -3.673,-0.693 v -2.1 c 1.345,0.621 2.597,0.931 3.755,0.931 1.497,0 2.245,-0.452 2.245,-1.355 0,-0.29 -0.083,-0.531 -0.248,-0.724 -0.166,-0.193 -0.438,-0.393 -0.817,-0.6 -0.379,-0.207 -0.907,-0.441 -1.583,-0.703 -1.317,-0.51 -2.208,-1.021 -2.674,-1.531 -0.466,-0.51 -0.698,-1.172 -0.698,-1.986 0,-0.979 0.395,-1.74 1.185,-2.281 0.789,-0.541 1.863,-0.812 3.223,-0.812 1.345,0 2.617,0.272 3.816,0.817 l -0.786,1.831 c -1.234,-0.51 -2.272,-0.766 -3.113,-0.766 -1.283,0 -1.924,0.366 -1.924,1.097 0,0.358 0.167,0.662 0.501,0.91 0.335,0.248 1.064,0.59 2.188,1.024 0.944,0.366 1.631,0.7 2.059,1.003 0.427,0.304 0.744,0.654 0.951,1.05 0.207,0.396 0.31,0.872 0.31,1.423 z"
         id="path3978"
         inkscape:connector-curvature="0"
         style="fill:#4e4e4e" /><path
         d="m 149.876,42.145 c 0,1.869 -0.479,3.328 -1.438,4.376 -0.959,1.048 -2.293,1.572 -4.004,1.572 -1.068,0 -2.014,-0.242 -2.834,-0.724 -0.821,-0.483 -1.452,-1.176 -1.894,-2.08 -0.441,-0.903 -0.662,-1.951 -0.662,-3.145 0,-1.855 0.477,-3.303 1.428,-4.345 0.952,-1.041 2.293,-1.562 4.024,-1.562 1.655,0 2.965,0.533 3.931,1.598 0.966,1.065 1.449,2.503 1.449,4.31 z m -8.327,0 c 0,2.642 0.976,3.962 2.928,3.962 1.931,0 2.896,-1.32 2.896,-3.962 0,-2.614 -0.973,-3.92 -2.918,-3.92 -1.021,0 -1.76,0.338 -2.219,1.014 -0.458,0.675 -0.687,1.643 -0.687,2.906 z"
         id="path3980"
         inkscape:connector-curvature="0"
         style="fill:#4e4e4e" /><path
         d="m 161.463,47.886 h -2.441 v -7.034 c 0,-0.883 -0.178,-1.542 -0.532,-1.976 -0.355,-0.435 -0.919,-0.652 -1.691,-0.652 -1.027,0 -1.779,0.304 -2.255,0.91 -0.477,0.607 -0.714,1.624 -0.714,3.052 v 5.7 h -2.431 V 36.445 h 1.903 l 0.341,1.5 h 0.124 c 0.345,-0.545 0.835,-0.965 1.469,-1.262 0.635,-0.296 1.338,-0.445 2.11,-0.445 2.745,0 4.117,1.396 4.117,4.189 z"
         id="path3982"
         inkscape:connector-curvature="0"
         style="fill:#4e4e4e" /></g><g
       id="g3992"><path
         d="m 55.571,17.313 h 6.922 v 8.644 c -1.879,0.644 -3.945,0.965 -6.198,0.965 -2.472,0 -4.382,-0.716 -5.731,-2.15 -1.349,-1.433 -2.024,-3.477 -2.024,-6.132 0,-2.589 0.739,-4.603 2.216,-6.044 1.477,-1.44 3.547,-2.161 6.208,-2.161 1.009,0 1.962,0.095 2.858,0.285 0.896,0.19 1.676,0.432 2.342,0.724 l -1.371,3.4 c -1.156,-0.57 -2.424,-0.855 -3.807,-0.855 -1.265,0 -2.243,0.412 -2.934,1.234 -0.691,0.823 -1.037,1.999 -1.037,3.527 0,1.499 0.313,2.642 0.938,3.428 0.625,0.786 1.526,1.179 2.704,1.179 0.644,0 1.236,-0.062 1.777,-0.187 v -2.512 h -2.863 z"
         id="path3986"
         inkscape:connector-curvature="0"
         style="fill:#4e4e4e" /><path
         d="m 78.026,18.344 c 0,2.676 -0.737,4.739 -2.21,6.187 -1.473,1.448 -3.545,2.172 -6.214,2.172 H 64.414 V 10.666 h 5.551 c 2.574,0 4.561,0.658 5.961,1.975 1.4,1.317 2.1,3.217 2.1,5.703 z m -4.497,0.154 c 0,-1.47 -0.291,-2.56 -0.872,-3.269 -0.582,-0.709 -1.464,-1.064 -2.649,-1.064 h -1.262 v 8.983 h 0.965 c 1.316,0 2.282,-0.382 2.896,-1.146 0.614,-0.764 0.922,-1.932 0.922,-3.504 z"
         id="path3988"
         inkscape:connector-curvature="0"
         style="fill:#4e4e4e" /><path
         d="m 85.991,17.313 h 6.922 v 8.644 c -1.879,0.644 -3.945,0.965 -6.198,0.965 -2.472,0 -4.382,-0.716 -5.731,-2.15 -1.349,-1.433 -2.024,-3.477 -2.024,-6.132 0,-2.589 0.739,-4.603 2.216,-6.044 1.477,-1.44 3.547,-2.161 6.208,-2.161 1.009,0 1.962,0.095 2.858,0.285 0.896,0.19 1.676,0.432 2.342,0.724 l -1.371,3.4 c -1.156,-0.57 -2.424,-0.855 -3.807,-0.855 -1.265,0 -2.243,0.412 -2.934,1.234 -0.691,0.823 -1.037,1.999 -1.037,3.527 0,1.499 0.313,2.642 0.938,3.428 0.625,0.786 1.526,1.179 2.704,1.179 0.644,0 1.236,-0.062 1.777,-0.187 v -2.512 h -2.863 z"
         id="path3990"
         inkscape:connector-curvature="0"
         style="fill:#4e4e4e" /></g><radialGradient
       id="radialGradient4368"
       cx="-310.58301"
       cy="-60.055"
       r="20.113701"
       gradientTransform="matrix(0.498,0,0,0.498,172.2891,79.7388)"
       gradientUnits="userSpaceOnUse"><stop
         offset="0"
         style="stop-color:#FFCF4F"
         id="stop4364" /><stop
         offset="1"
         style="stop-color:#F4C236"
         id="stop4366" /></radialGradient><path
       d="m 8.91,61 h 6.791 c 1.607,0 3.604,-1.128 4.432,-2.511 l 5.72,-9.519 c 0.677,-1.396 0.653,-3.426 -0.119,-4.713 l -3.378,-5.592 z"
       id="path3999"
       inkscape:connector-curvature="0"
       style="fill:url(#SVGID_1_)" /><radialGradient
       id="radialGradient4375"
       cx="-322.6347"
       cy="-70.269501"
       r="27.658199"
       gradientTransform="matrix(0.498,0,0,0.498,172.2891,79.7388)"
       gradientUnits="userSpaceOnUse"><stop
         offset="0"
         style="stop-color:#08A960"
         id="stop4371" /><stop
         offset="1"
         style="stop-color:#07914B"
         id="stop4373" /></radialGradient><path
       d="M 16.209,33.514 1.108,58.763 C 0.524,60.011 1.131,61 2.629,61 H 8.91 L 22.356,38.665 16.21,28.492 c 0.829,1.378 0.829,3.638 -0.001,5.022"
       id="path4006"
       inkscape:connector-curvature="0"
       style="fill:url(#SVGID_2_)" /><radialGradient
       id="radialGradient4382"
       cx="-313.18311"
       cy="-109.9511"
       r="40.540001"
       gradientTransform="matrix(0.498,0,0,0.498,172.2891,79.7388)"
       gradientUnits="userSpaceOnUse"><stop
         offset="0"
         style="stop-color:#567FC0"
         id="stop4378" /><stop
         offset="1"
         style="stop-color:#557FC0"
         id="stop4380" /></radialGradient><path
       d="M 2.629,1 C 1.015,1 0.375,2.133 1.205,3.511 l 24.529,40.745 c 0.772,1.288 0.795,3.317 0.119,4.713 L 31.816,39.044 8.914,1 Z"
       id="path4013"
       inkscape:connector-curvature="0"
       style="fill:url(#SVGID_3_)" /><radialGradient
       id="radialGradient4389"
       cx="-301.11911"
       cy="-119.9164"
       r="33.058399"
       gradientTransform="matrix(0.498,0,0,0.498,172.2891,79.7388)"
       gradientUnits="userSpaceOnUse"><stop
         offset="0"
         style="stop-color:#E14C40"
         id="stop4385" /><stop
         offset="1"
         style="stop-color:#CD392D"
         id="stop4387" /></radialGradient><path
       d="m 8.914,1 22.903,38.045 3.321,-5.53 c 0.83,-1.385 0.83,-3.645 0,-5.023 L 20.133,3.511 C 19.305,2.133 17.308,1 15.701,1 Z"
       id="path4020"
       inkscape:connector-curvature="0"
       style="fill:url(#SVGID_4_)" /></g><g
     transform="translate(-0.13738804,-0.21242942)"
     id="g4098"><g
       id="g4038"><path
         d="m 115.912,80.967 c 0,2.677 -0.731,4.738 -2.193,6.187 -1.462,1.447 -3.518,2.171 -6.166,2.171 h -5.148 V 73.29 h 5.507 c 2.554,0 4.526,0.657 5.916,1.974 1.39,1.317 2.084,3.217 2.084,5.703 z m -4.462,0.153 c 0,-1.469 -0.289,-2.559 -0.866,-3.268 -0.577,-0.71 -1.453,-1.064 -2.628,-1.064 h -1.251 v 8.982 h 0.958 c 1.306,0 2.264,-0.382 2.874,-1.146 0.608,-0.764 0.913,-1.932 0.913,-3.504 z"
         id="path4024"
         inkscape:connector-curvature="0"
         style="fill:#4e4e4e" /><path
         d="m 123.129,89.544 c -2.053,0 -3.646,-0.55 -4.783,-1.65 -1.136,-1.101 -1.704,-2.667 -1.704,-4.7 0,-2.099 0.526,-3.709 1.578,-4.831 1.053,-1.122 2.555,-1.684 4.506,-1.684 1.857,0 3.293,0.488 4.305,1.464 1.012,0.977 1.52,2.382 1.52,4.218 v 1.908 h -7.609 c 0.029,0.694 0.281,1.239 0.758,1.634 0.475,0.396 1.121,0.593 1.941,0.593 0.748,0 1.436,-0.071 2.063,-0.214 0.629,-0.143 1.309,-0.386 2.041,-0.729 v 3.082 c -0.668,0.344 -1.357,0.581 -2.068,0.713 -0.712,0.13 -1.56,0.196 -2.548,0.196 z m -0.25,-9.948 c -0.5,0 -0.92,0.159 -1.256,0.478 -0.338,0.318 -0.537,0.817 -0.594,1.497 h 3.656 c -0.014,-0.6 -0.184,-1.078 -0.506,-1.437 -0.322,-0.359 -0.755,-0.538 -1.3,-0.538 z"
         id="path4026"
         inkscape:connector-curvature="0"
         style="fill:#4e4e4e" /><path
         d="m 132.851,89.324 -4.702,-12.426 h 4.44 l 2.09,7.348 c 0.008,0.037 0.022,0.099 0.044,0.187 0.022,0.088 0.043,0.192 0.065,0.313 0.021,0.121 0.041,0.249 0.06,0.384 0.018,0.136 0.027,0.262 0.027,0.379 h 0.076 c 0,-0.38 0.065,-0.793 0.195,-1.239 l 2.188,-7.37 h 4.43 l -4.702,12.426 h -4.211 z"
         id="path4028"
         inkscape:connector-curvature="0"
         style="fill:#4e4e4e" /><path
         d="m 146.381,89.324 h -4.234 V 73.29 h 9.404 v 3.477 h -5.17 v 3.06 h 4.767 v 3.477 h -4.767 z"
         id="path4030"
         inkscape:connector-curvature="0"
         style="fill:#4e4e4e" /><path
         d="m 158.528,89.544 c -2.054,0 -3.647,-0.55 -4.783,-1.65 -1.136,-1.1 -1.703,-2.667 -1.703,-4.7 0,-2.099 0.525,-3.709 1.578,-4.831 1.052,-1.122 2.554,-1.684 4.506,-1.684 1.857,0 3.292,0.488 4.305,1.464 1.012,0.977 1.519,2.382 1.519,4.218 v 1.908 h -7.608 c 0.029,0.694 0.281,1.239 0.757,1.634 0.475,0.396 1.122,0.593 1.942,0.593 0.747,0 1.435,-0.071 2.063,-0.214 0.628,-0.143 1.308,-0.386 2.041,-0.729 v 3.082 c -0.668,0.344 -1.357,0.581 -2.068,0.713 -0.713,0.13 -1.561,0.196 -2.549,0.196 z m -0.25,-9.948 c -0.501,0 -0.92,0.159 -1.257,0.478 -0.338,0.318 -0.536,0.817 -0.594,1.497 h 3.657 c -0.015,-0.6 -0.184,-1.078 -0.506,-1.437 -0.322,-0.359 -0.756,-0.538 -1.3,-0.538 z"
         id="path4032"
         inkscape:connector-curvature="0"
         style="fill:#4e4e4e" /><path
         d="m 174.541,85.508 c 0,1.331 -0.45,2.336 -1.35,3.016 -0.9,0.681 -2.191,1.021 -3.875,1.021 -0.914,0 -1.709,-0.05 -2.384,-0.148 -0.675,-0.098 -1.364,-0.279 -2.067,-0.543 V 85.42 c 0.66,0.293 1.384,0.534 2.171,0.724 0.787,0.19 1.489,0.285 2.106,0.285 0.921,0 1.382,-0.212 1.382,-0.636 0,-0.22 -0.129,-0.415 -0.386,-0.587 -0.258,-0.172 -1.007,-0.506 -2.248,-1.004 -1.132,-0.468 -1.923,-0.999 -2.373,-1.596 -0.449,-0.596 -0.675,-1.351 -0.675,-2.265 0,-1.155 0.442,-2.055 1.328,-2.698 0.885,-0.644 2.137,-0.965 3.755,-0.965 0.813,0 1.576,0.09 2.291,0.269 0.715,0.18 1.457,0.44 2.227,0.784 l -1.154,2.764 c -0.565,-0.256 -1.164,-0.473 -1.796,-0.652 -0.631,-0.179 -1.146,-0.269 -1.546,-0.269 -0.696,0 -1.044,0.172 -1.044,0.516 0,0.212 0.121,0.393 0.364,0.543 0.243,0.149 0.945,0.455 2.106,0.915 0.863,0.358 1.507,0.71 1.932,1.054 0.425,0.344 0.736,0.747 0.936,1.212 0.2,0.463 0.3,1.029 0.3,1.694 z"
         id="path4034"
         inkscape:connector-curvature="0"
         style="fill:#4e4e4e" /><path
         d="m 181.605,86.154 c 0.573,0 1.259,-0.143 2.058,-0.428 v 3.126 c -0.573,0.249 -1.119,0.427 -1.639,0.532 -0.519,0.105 -1.126,0.159 -1.822,0.159 -1.43,0 -2.46,-0.353 -3.092,-1.059 -0.631,-0.705 -0.946,-1.789 -0.946,-3.252 V 80.11 h -1.491 v -1.743 l 1.894,-1.35 1.1,-2.61 h 2.786 v 2.49 h 3.025 v 3.213 h -3.025 v 4.837 c -0.001,0.806 0.384,1.207 1.152,1.207 z"
         id="path4036"
         inkscape:connector-curvature="0"
         style="fill:#4e4e4e" /></g><g
       id="g4060"><path
         d="M 60.282,110.886 H 50.031 v -1.841 l 3.9,-3.921 c 1.151,-1.18 1.915,-2.016 2.291,-2.509 0.376,-0.493 0.65,-0.957 0.822,-1.392 0.172,-0.434 0.259,-0.899 0.259,-1.396 0,-0.683 -0.205,-1.221 -0.616,-1.613 -0.41,-0.394 -0.978,-0.59 -1.702,-0.59 -0.579,0 -1.14,0.107 -1.681,0.321 -0.542,0.214 -1.167,0.6 -1.877,1.158 L 50.114,97.5 c 0.841,-0.71 1.659,-1.214 2.452,-1.51 0.793,-0.297 1.638,-0.445 2.535,-0.445 1.407,0 2.534,0.367 3.382,1.102 0.848,0.735 1.272,1.723 1.272,2.964 0,0.683 -0.123,1.331 -0.367,1.944 -0.245,0.614 -0.621,1.247 -1.127,1.898 -0.506,0.651 -1.35,1.533 -2.529,2.644 l -2.627,2.544 v 0.104 h 7.179 v 2.141 z"
         id="path4040"
         inkscape:connector-curvature="0"
         style="fill:#4e4e4e" /><path
         d="m 71.104,103.324 c 0,2.627 -0.422,4.579 -1.267,5.854 -0.845,1.276 -2.136,1.914 -3.874,1.914 -1.683,0 -2.958,-0.658 -3.827,-1.976 -0.869,-1.317 -1.304,-3.248 -1.304,-5.793 0,-2.669 0.422,-4.636 1.268,-5.901 0.844,-1.266 2.132,-1.898 3.863,-1.898 1.689,0 2.969,0.662 3.838,1.986 0.869,1.324 1.303,3.262 1.303,5.814 z m -7.811,0 c 0,2.062 0.212,3.534 0.636,4.417 0.424,0.883 1.102,1.324 2.033,1.324 0.931,0 1.612,-0.448 2.043,-1.345 0.431,-0.896 0.646,-2.362 0.646,-4.396 0,-2.027 -0.215,-3.495 -0.646,-4.401 -0.431,-0.907 -1.112,-1.36 -2.043,-1.36 -0.931,0 -1.608,0.444 -2.033,1.334 -0.423,0.889 -0.636,2.365 -0.636,4.427 z"
         id="path4042"
         inkscape:connector-curvature="0"
         style="fill:#4e4e4e" /><path
         d="m 78.812,110.886 h -2.431 v -9.766 c 0,-1.165 0.027,-2.089 0.083,-2.771 -0.159,0.165 -0.354,0.348 -0.584,0.548 -0.231,0.2 -1.005,0.835 -2.323,1.903 l -1.22,-1.541 4.448,-3.497 h 2.028 v 15.124 z"
         id="path4044"
         inkscape:connector-curvature="0"
         style="fill:#4e4e4e" /><path
         d="m 93.285,107.586 h -2.038 v 3.3 h -2.369 v -3.3 h -6.91 v -1.872 l 6.91,-9.993 h 2.369 v 9.848 h 2.038 z m -4.407,-2.018 v -3.796 c 0,-1.352 0.035,-2.459 0.104,-3.32 h -0.083 c -0.193,0.455 -0.496,1.007 -0.91,1.654 l -3.755,5.462 z"
         id="path4046"
         inkscape:connector-curvature="0"
         style="fill:#4e4e4e" /><path
         d="m 107.335,106.779 c 0,1.345 -0.486,2.399 -1.458,3.165 -0.973,0.766 -2.314,1.148 -4.024,1.148 -1.71,0 -3.11,-0.266 -4.2,-0.797 v -2.338 c 0.689,0.324 1.422,0.579 2.198,0.766 0.776,0.187 1.499,0.279 2.167,0.279 0.979,0 1.702,-0.187 2.167,-0.559 0.465,-0.372 0.698,-0.872 0.698,-1.5 0,-0.565 -0.214,-1.045 -0.641,-1.438 -0.428,-0.394 -1.311,-0.858 -2.648,-1.396 -1.379,-0.559 -2.352,-1.196 -2.917,-1.914 -0.565,-0.717 -0.848,-1.579 -0.848,-2.586 0,-1.262 0.448,-2.255 1.345,-2.979 0.896,-0.724 2.1,-1.086 3.61,-1.086 1.448,0 2.89,0.317 4.324,0.952 l -0.786,2.017 c -1.345,-0.565 -2.545,-0.848 -3.6,-0.848 -0.8,0 -1.407,0.174 -1.82,0.521 -0.414,0.349 -0.621,0.81 -0.621,1.382 0,0.393 0.083,0.729 0.248,1.008 0.165,0.279 0.438,0.543 0.817,0.792 0.379,0.248 1.062,0.575 2.048,0.982 1.11,0.462 1.924,0.894 2.441,1.293 0.517,0.4 0.896,0.852 1.138,1.355 0.241,0.505 0.362,1.099 0.362,1.781 z"
         id="path4048"
         inkscape:connector-curvature="0"
         style="fill:#4e4e4e" /><path
         d="m 113.729,111.093 c -1.779,0 -3.171,-0.519 -4.174,-1.557 -1.003,-1.038 -1.505,-2.468 -1.505,-4.288 0,-1.869 0.465,-3.338 1.396,-4.407 0.931,-1.068 2.21,-1.603 3.838,-1.603 1.51,0 2.703,0.458 3.579,1.375 0.875,0.918 1.313,2.18 1.313,3.786 v 1.314 h -7.624 c 0.034,1.11 0.334,1.964 0.9,2.56 0.565,0.597 1.362,0.896 2.39,0.896 0.676,0 1.305,-0.064 1.888,-0.191 0.583,-0.128 1.208,-0.34 1.877,-0.637 v 1.976 c -0.593,0.283 -1.193,0.483 -1.8,0.601 -0.607,0.118 -1.298,0.175 -2.078,0.175 z m -0.444,-10.014 c -0.772,0 -1.392,0.245 -1.857,0.734 -0.465,0.49 -0.743,1.204 -0.833,2.142 h 5.193 c -0.014,-0.945 -0.242,-1.66 -0.683,-2.146 -0.441,-0.486 -1.048,-0.73 -1.82,-0.73 z"
         id="path4050"
         inkscape:connector-curvature="0"
         style="fill:#4e4e4e" /><path
         d="m 126.826,110.886 -0.486,-1.593 h -0.082 c -0.553,0.696 -1.107,1.171 -1.666,1.422 -0.559,0.252 -1.275,0.378 -2.152,0.378 -1.123,0 -2,-0.304 -2.631,-0.91 -0.633,-0.607 -0.947,-1.466 -0.947,-2.576 0,-1.179 0.438,-2.068 1.314,-2.669 0.875,-0.6 2.209,-0.928 4.002,-0.982 l 1.977,-0.063 v -0.61 c 0,-0.73 -0.172,-1.277 -0.512,-1.64 -0.342,-0.361 -0.871,-0.543 -1.588,-0.543 -0.586,0 -1.148,0.087 -1.688,0.259 -0.537,0.173 -1.055,0.376 -1.551,0.61 l -0.787,-1.737 c 0.621,-0.324 1.301,-0.571 2.039,-0.74 0.738,-0.169 1.434,-0.253 2.09,-0.253 1.455,0 2.553,0.317 3.295,0.951 0.74,0.635 1.111,1.631 1.111,2.989 v 7.707 z m -3.621,-1.656 c 0.883,0 1.592,-0.246 2.127,-0.739 0.533,-0.493 0.801,-1.185 0.801,-2.074 v -0.993 l -1.469,0.063 c -1.145,0.041 -1.977,0.232 -2.498,0.574 -0.521,0.341 -0.781,0.863 -0.781,1.566 0,0.511 0.152,0.905 0.455,1.185 0.305,0.279 0.76,0.418 1.365,0.418 z"
         id="path4052"
         inkscape:connector-curvature="0"
         style="fill:#4e4e4e" /><path
         d="m 138.372,107.627 c 0,1.117 -0.407,1.975 -1.221,2.571 -0.813,0.596 -1.979,0.895 -3.496,0.895 -1.524,0 -2.749,-0.231 -3.673,-0.693 v -2.1 c 1.345,0.62 2.597,0.931 3.755,0.931 1.497,0 2.245,-0.451 2.245,-1.354 0,-0.29 -0.083,-0.531 -0.248,-0.725 -0.166,-0.193 -0.438,-0.393 -0.817,-0.6 -0.379,-0.207 -0.907,-0.441 -1.583,-0.704 -1.317,-0.51 -2.208,-1.021 -2.674,-1.53 -0.466,-0.511 -0.698,-1.173 -0.698,-1.986 0,-0.979 0.395,-1.739 1.185,-2.281 0.789,-0.541 1.863,-0.812 3.223,-0.812 1.345,0 2.617,0.272 3.816,0.816 l -0.786,1.831 c -1.234,-0.51 -2.272,-0.766 -3.113,-0.766 -1.283,0 -1.924,0.366 -1.924,1.097 0,0.359 0.167,0.662 0.501,0.91 0.335,0.249 1.064,0.59 2.188,1.024 0.944,0.366 1.631,0.7 2.059,1.004 0.427,0.303 0.744,0.653 0.951,1.05 0.207,0.397 0.31,0.87 0.31,1.422 z"
         id="path4054"
         inkscape:connector-curvature="0"
         style="fill:#4e4e4e" /><path
         d="m 149.876,105.145 c 0,1.869 -0.479,3.327 -1.438,4.376 -0.959,1.048 -2.293,1.572 -4.004,1.572 -1.068,0 -2.014,-0.241 -2.834,-0.725 -0.821,-0.482 -1.452,-1.176 -1.894,-2.079 -0.442,-0.903 -0.662,-1.951 -0.662,-3.145 0,-1.855 0.477,-3.303 1.428,-4.345 0.952,-1.041 2.293,-1.562 4.024,-1.562 1.655,0 2.965,0.532 3.931,1.598 0.966,1.066 1.449,2.503 1.449,4.31 z m -8.327,0 c 0,2.642 0.976,3.962 2.928,3.962 1.931,0 2.896,-1.32 2.896,-3.962 0,-2.613 -0.973,-3.921 -2.918,-3.921 -1.021,0 -1.76,0.339 -2.219,1.015 -0.458,0.675 -0.687,1.644 -0.687,2.906 z"
         id="path4056"
         inkscape:connector-curvature="0"
         style="fill:#4e4e4e" /><path
         d="m 161.463,110.886 h -2.441 v -7.034 c 0,-0.883 -0.178,-1.541 -0.532,-1.976 -0.355,-0.435 -0.919,-0.652 -1.691,-0.652 -1.027,0 -1.779,0.304 -2.255,0.911 -0.477,0.606 -0.714,1.624 -0.714,3.051 v 5.7 h -2.431 V 99.444 h 1.903 l 0.341,1.5 h 0.124 c 0.345,-0.544 0.835,-0.965 1.469,-1.262 0.635,-0.296 1.338,-0.444 2.11,-0.444 2.745,0 4.117,1.396 4.117,4.189 z"
         id="path4058"
         inkscape:connector-curvature="0"
         style="fill:#4e4e4e" /></g><g
       id="g4068"><path
         d="m 55.571,80.313 h 6.922 v 8.644 c -1.879,0.644 -3.945,0.966 -6.198,0.966 -2.472,0 -4.382,-0.717 -5.731,-2.15 -1.349,-1.433 -2.024,-3.477 -2.024,-6.132 0,-2.589 0.739,-4.603 2.216,-6.044 1.477,-1.44 3.547,-2.161 6.208,-2.161 1.009,0 1.962,0.096 2.858,0.285 0.896,0.19 1.676,0.432 2.342,0.725 l -1.371,3.4 c -1.156,-0.57 -2.424,-0.855 -3.807,-0.855 -1.265,0 -2.243,0.411 -2.934,1.233 -0.691,0.823 -1.037,1.999 -1.037,3.527 0,1.499 0.313,2.642 0.938,3.428 0.625,0.786 1.526,1.179 2.704,1.179 0.644,0 1.236,-0.062 1.777,-0.187 v -2.512 h -2.863 z"
         id="path4062"
         inkscape:connector-curvature="0"
         style="fill:#4e4e4e" /><path
         d="m 78.026,81.344 c 0,2.677 -0.737,4.739 -2.21,6.187 -1.474,1.448 -3.545,2.172 -6.214,2.172 H 64.414 V 73.665 h 5.551 c 2.574,0 4.561,0.658 5.961,1.975 1.4,1.317 2.1,3.217 2.1,5.704 z m -4.497,0.153 c 0,-1.47 -0.291,-2.56 -0.872,-3.269 -0.581,-0.709 -1.464,-1.063 -2.649,-1.063 h -1.262 v 8.983 h 0.965 c 1.316,0 2.282,-0.382 2.896,-1.146 0.615,-0.764 0.922,-1.933 0.922,-3.505 z"
         id="path4064"
         inkscape:connector-curvature="0"
         style="fill:#4e4e4e" /><path
         d="m 85.991,80.313 h 6.922 v 8.644 c -1.879,0.644 -3.945,0.966 -6.198,0.966 -2.472,0 -4.382,-0.717 -5.731,-2.15 -1.349,-1.433 -2.024,-3.477 -2.024,-6.132 0,-2.589 0.739,-4.603 2.216,-6.044 1.477,-1.44 3.547,-2.161 6.208,-2.161 1.009,0 1.962,0.096 2.858,0.285 0.896,0.19 1.676,0.432 2.342,0.725 l -1.371,3.4 c -1.156,-0.57 -2.424,-0.855 -3.807,-0.855 -1.265,0 -2.243,0.411 -2.934,1.233 -0.691,0.823 -1.037,1.999 -1.037,3.527 0,1.499 0.313,2.642 0.938,3.428 0.625,0.786 1.526,1.179 2.704,1.179 0.644,0 1.236,-0.062 1.777,-0.187 v -2.512 h -2.863 z"
         id="path4066"
         inkscape:connector-curvature="0"
         style="fill:#4e4e4e" /></g><radialGradient
       id="radialGradient4420"
       cx="-310.58301"
       cy="66.4552"
       r="20.113701"
       gradientTransform="matrix(0.498,0,0,0.498,172.2891,79.7388)"
       gradientUnits="userSpaceOnUse"><stop
         offset="0"
         style="stop-color:#CCCCCC"
         id="stop4416" /><stop
         offset="1"
         style="stop-color:#C0C0C0"
         id="stop4418" /></radialGradient><path
       d="m 8.91,124 h 6.791 c 1.607,0 3.604,-1.128 4.432,-2.511 l 5.72,-9.519 c 0.677,-1.396 0.653,-3.426 -0.119,-4.713 l -3.378,-5.592 z"
       id="path4075"
       inkscape:connector-curvature="0"
       style="fill:url(#SVGID_5_)" /><radialGradient
       id="radialGradient4427"
       cx="-322.6347"
       cy="56.2407"
       r="27.658199"
       gradientTransform="matrix(0.498,0,0,0.498,172.2891,79.7388)"
       gradientUnits="userSpaceOnUse"><stop
         offset="0"
         style="stop-color:#A0A0A0"
         id="stop4423" /><stop
         offset="1"
         style="stop-color:#7B7B7B"
         id="stop4425" /></radialGradient><path
       d="M 16.209,96.514 1.108,121.763 C 0.524,123.011 1.131,124 2.629,124 H 8.91 L 22.356,101.665 16.21,91.492 c 0.829,1.378 0.829,3.638 -0.001,5.022"
       id="path4082"
       inkscape:connector-curvature="0"
       style="fill:url(#SVGID_6_)" /><radialGradient
       id="radialGradient4434"
       cx="-313.18311"
       cy="16.559"
       r="40.540001"
       gradientTransform="matrix(0.498,0,0,0.498,172.2891,79.7388)"
       gradientUnits="userSpaceOnUse"><stop
         offset="0"
         style="stop-color:#848484"
         id="stop4430" /><stop
         offset="1"
         style="stop-color:#838383"
         id="stop4432" /></radialGradient><path
       d="m 2.629,64 c -1.613,0 -2.254,1.133 -1.424,2.511 l 24.529,40.745 c 0.772,1.288 0.795,3.317 0.119,4.713 L 31.816,102.044 8.914,64 Z"
       id="path4089"
       inkscape:connector-curvature="0"
       style="fill:url(#SVGID_7_)" /><radialGradient
       id="radialGradient4441"
       cx="-301.11911"
       cy="6.5938001"
       r="33.058399"
       gradientTransform="matrix(0.498,0,0,0.498,172.2891,79.7388)"
       gradientUnits="userSpaceOnUse"><stop
         offset="0"
         style="stop-color:#626262"
         id="stop4437" /><stop
         offset="1"
         style="stop-color:#474747"
         id="stop4439" /></radialGradient><path
       d="m 8.914,64 22.903,38.045 3.321,-5.53 c 0.83,-1.385 0.83,-3.645 0,-5.023 L 20.134,66.512 C 19.305,65.133 17.308,64 15.701,64 Z"
       id="path4096"
       inkscape:connector-curvature="0"
       style="fill:url(#SVGID_8_)" /></g><g
     transform="translate(-0.13738804,-0.21242942)"
     id="g4174"><g
       id="g4114"><path
         d="m 116.071,143.967 c 0,2.676 -0.731,4.738 -2.193,6.186 -1.462,1.448 -3.518,2.172 -6.166,2.172 h -5.148 V 136.29 h 5.507 c 2.554,0 4.526,0.658 5.916,1.975 1.39,1.317 2.084,3.215 2.084,5.702 z m -4.463,0.153 c 0,-1.47 -0.289,-2.559 -0.866,-3.269 -0.577,-0.709 -1.453,-1.063 -2.628,-1.063 h -1.251 v 8.982 h 0.958 c 1.306,0 2.264,-0.382 2.874,-1.146 0.608,-0.764 0.913,-1.932 0.913,-3.504 z"
         id="path4100"
         inkscape:connector-curvature="0"
         style="fill:#e6e6e5" /><path
         d="m 123.287,152.544 c -2.053,0 -3.646,-0.551 -4.782,-1.651 -1.136,-1.1 -1.704,-2.667 -1.704,-4.699 0,-2.099 0.526,-3.709 1.578,-4.831 1.052,-1.123 2.554,-1.684 4.505,-1.684 1.857,0 3.293,0.487 4.305,1.464 1.012,0.977 1.52,2.382 1.52,4.217 v 1.909 H 121.1 c 0.029,0.694 0.281,1.239 0.758,1.634 0.475,0.395 1.121,0.592 1.941,0.592 0.748,0 1.436,-0.071 2.063,-0.214 0.629,-0.143 1.309,-0.385 2.041,-0.729 v 3.081 c -0.668,0.344 -1.357,0.582 -2.068,0.713 -0.712,0.132 -1.56,0.198 -2.548,0.198 z m -0.25,-9.948 c -0.5,0 -0.92,0.159 -1.256,0.478 -0.338,0.317 -0.537,0.816 -0.594,1.497 h 3.656 c -0.014,-0.6 -0.184,-1.079 -0.506,-1.438 -0.321,-0.358 -0.755,-0.537 -1.3,-0.537 z"
         id="path4102"
         inkscape:connector-curvature="0"
         style="fill:#e6e6e5" /><path
         d="m 133.009,152.324 -4.702,-12.427 h 4.44 l 2.09,7.349 c 0.008,0.037 0.022,0.099 0.044,0.187 0.022,0.088 0.043,0.192 0.065,0.313 0.021,0.121 0.041,0.249 0.06,0.384 0.018,0.136 0.027,0.262 0.027,0.379 h 0.076 c 0,-0.381 0.065,-0.794 0.195,-1.239 l 2.188,-7.371 h 4.43 l -4.702,12.427 h -4.211 z"
         id="path4104"
         inkscape:connector-curvature="0"
         style="fill:#e6e6e5" /><path
         d="m 146.539,152.324 h -4.234 v -16.035 h 9.404 v 3.478 h -5.17 v 3.06 h 4.767 v 3.477 h -4.767 z"
         id="path4106"
         inkscape:connector-curvature="0"
         style="fill:#e6e6e5" /><path
         d="m 158.687,152.544 c -2.054,0 -3.647,-0.551 -4.783,-1.651 -1.136,-1.1 -1.703,-2.667 -1.703,-4.699 0,-2.099 0.525,-3.709 1.578,-4.831 1.052,-1.123 2.554,-1.684 4.506,-1.684 1.857,0 3.292,0.487 4.305,1.464 1.012,0.977 1.519,2.382 1.519,4.217 v 1.909 h -7.608 c 0.029,0.694 0.281,1.239 0.757,1.634 0.475,0.395 1.122,0.592 1.942,0.592 0.747,0 1.435,-0.071 2.063,-0.214 0.628,-0.143 1.308,-0.385 2.041,-0.729 v 3.081 c -0.668,0.344 -1.357,0.582 -2.068,0.713 -0.714,0.132 -1.562,0.198 -2.549,0.198 z m -0.25,-9.948 c -0.501,0 -0.92,0.159 -1.257,0.478 -0.338,0.317 -0.536,0.816 -0.594,1.497 h 3.657 c -0.015,-0.6 -0.184,-1.079 -0.506,-1.438 -0.323,-0.358 -0.757,-0.537 -1.3,-0.537 z"
         id="path4108"
         inkscape:connector-curvature="0"
         style="fill:#e6e6e5" /><path
         d="m 174.699,148.508 c 0,1.33 -0.45,2.336 -1.35,3.016 -0.9,0.68 -2.191,1.021 -3.875,1.021 -0.914,0 -1.709,-0.05 -2.384,-0.148 -0.675,-0.098 -1.364,-0.279 -2.067,-0.543 v -3.433 c 0.66,0.292 1.384,0.533 2.171,0.724 0.787,0.191 1.489,0.285 2.106,0.285 0.921,0 1.382,-0.212 1.382,-0.636 0,-0.22 -0.129,-0.415 -0.386,-0.587 -0.258,-0.172 -1.007,-0.507 -2.248,-1.004 -1.132,-0.468 -1.923,-1 -2.373,-1.596 -0.449,-0.596 -0.675,-1.351 -0.675,-2.265 0,-1.155 0.442,-2.055 1.328,-2.698 0.885,-0.644 2.137,-0.965 3.755,-0.965 0.813,0 1.576,0.089 2.291,0.269 0.715,0.179 1.457,0.44 2.227,0.784 l -1.154,2.764 c -0.565,-0.256 -1.164,-0.474 -1.796,-0.652 -0.631,-0.18 -1.146,-0.269 -1.546,-0.269 -0.696,0 -1.044,0.172 -1.044,0.516 0,0.212 0.121,0.393 0.364,0.542 0.243,0.15 0.945,0.456 2.106,0.916 0.863,0.358 1.507,0.71 1.932,1.053 0.425,0.344 0.736,0.748 0.936,1.212 0.201,0.463 0.3,1.028 0.3,1.694 z"
         id="path4110"
         inkscape:connector-curvature="0"
         style="fill:#e6e6e5" /><path
         d="m 181.764,149.154 c 0.573,0 1.259,-0.143 2.058,-0.428 v 3.126 c -0.573,0.249 -1.119,0.426 -1.639,0.532 -0.519,0.105 -1.126,0.159 -1.822,0.159 -1.43,0 -2.46,-0.354 -3.092,-1.059 -0.631,-0.706 -0.946,-1.79 -0.946,-3.252 v -5.122 h -1.491 v -1.744 l 1.894,-1.349 1.1,-2.61 h 2.786 v 2.489 h 3.025 v 3.214 h -3.025 v 4.837 c -0.002,0.806 0.383,1.207 1.152,1.207 z"
         id="path4112"
         inkscape:connector-curvature="0"
         style="fill:#e6e6e5" /></g><g
       id="g4136"><path
         d="M 60.441,173.886 H 50.19 v -1.841 l 3.9,-3.921 c 1.151,-1.18 1.915,-2.016 2.291,-2.509 0.376,-0.493 0.65,-0.957 0.822,-1.392 0.172,-0.434 0.259,-0.899 0.259,-1.396 0,-0.683 -0.205,-1.221 -0.616,-1.613 -0.41,-0.394 -0.978,-0.59 -1.702,-0.59 -0.579,0 -1.14,0.107 -1.681,0.321 -0.542,0.214 -1.167,0.6 -1.877,1.158 l -1.314,-1.604 c 0.841,-0.71 1.659,-1.214 2.452,-1.51 0.793,-0.297 1.638,-0.445 2.535,-0.445 1.407,0 2.534,0.367 3.382,1.102 0.848,0.735 1.272,1.723 1.272,2.964 0,0.683 -0.123,1.331 -0.367,1.944 -0.245,0.614 -0.621,1.247 -1.127,1.898 -0.506,0.651 -1.35,1.533 -2.529,2.644 l -2.627,2.544 v 0.104 h 7.179 v 2.142 z"
         id="path4116"
         inkscape:connector-curvature="0"
         style="fill:#e6e6e5" /><path
         d="m 71.262,166.324 c 0,2.627 -0.422,4.579 -1.267,5.854 -0.845,1.276 -2.136,1.914 -3.874,1.914 -1.683,0 -2.958,-0.658 -3.827,-1.976 -0.869,-1.317 -1.304,-3.248 -1.304,-5.793 0,-2.669 0.422,-4.636 1.268,-5.901 0.844,-1.266 2.132,-1.898 3.863,-1.898 1.689,0 2.969,0.662 3.838,1.986 0.869,1.324 1.303,3.262 1.303,5.814 z m -7.81,0 c 0,2.062 0.212,3.534 0.636,4.417 0.424,0.883 1.102,1.324 2.033,1.324 0.931,0 1.612,-0.448 2.043,-1.345 0.431,-0.896 0.646,-2.362 0.646,-4.396 0,-2.027 -0.215,-3.495 -0.646,-4.401 -0.431,-0.907 -1.112,-1.36 -2.043,-1.36 -0.931,0 -1.608,0.444 -2.033,1.334 -0.423,0.889 -0.636,2.365 -0.636,4.427 z"
         id="path4118"
         inkscape:connector-curvature="0"
         style="fill:#e6e6e5" /><path
         d="M 78.971,173.886 H 76.54 v -9.766 c 0,-1.165 0.027,-2.089 0.083,-2.771 -0.159,0.165 -0.354,0.348 -0.584,0.548 -0.231,0.2 -1.005,0.835 -2.323,1.903 l -1.22,-1.541 4.448,-3.497 h 2.028 v 15.124 z"
         id="path4120"
         inkscape:connector-curvature="0"
         style="fill:#e6e6e5" /><path
         d="m 93.443,170.586 h -2.038 v 3.3 h -2.369 v -3.3 h -6.91 v -1.872 l 6.91,-9.993 h 2.369 v 9.848 h 2.038 z m -4.406,-2.018 v -3.796 c 0,-1.352 0.035,-2.459 0.104,-3.32 h -0.083 c -0.193,0.455 -0.496,1.007 -0.91,1.654 l -3.755,5.462 z"
         id="path4122"
         inkscape:connector-curvature="0"
         style="fill:#e6e6e5" /><path
         d="m 107.494,169.779 c 0,1.345 -0.486,2.399 -1.458,3.165 -0.973,0.766 -2.314,1.148 -4.024,1.148 -1.71,0 -3.11,-0.266 -4.2,-0.797 v -2.338 c 0.689,0.324 1.422,0.579 2.198,0.766 0.776,0.187 1.499,0.279 2.167,0.279 0.979,0 1.702,-0.187 2.167,-0.559 0.465,-0.372 0.698,-0.872 0.698,-1.5 0,-0.565 -0.214,-1.045 -0.641,-1.438 -0.428,-0.394 -1.311,-0.858 -2.648,-1.396 -1.379,-0.559 -2.352,-1.196 -2.917,-1.914 -0.565,-0.717 -0.848,-1.579 -0.848,-2.586 0,-1.262 0.448,-2.255 1.345,-2.979 0.896,-0.724 2.1,-1.086 3.61,-1.086 1.448,0 2.89,0.317 4.324,0.952 l -0.786,2.017 c -1.345,-0.565 -2.545,-0.848 -3.6,-0.848 -0.8,0 -1.407,0.174 -1.82,0.521 -0.414,0.349 -0.621,0.81 -0.621,1.382 0,0.393 0.083,0.729 0.248,1.008 0.165,0.279 0.438,0.543 0.817,0.792 0.379,0.248 1.062,0.575 2.048,0.982 1.11,0.462 1.924,0.894 2.441,1.293 0.517,0.4 0.896,0.852 1.138,1.355 0.241,0.505 0.362,1.099 0.362,1.781 z"
         id="path4124"
         inkscape:connector-curvature="0"
         style="fill:#e6e6e5" /><path
         d="m 113.888,174.093 c -1.779,0 -3.171,-0.519 -4.174,-1.557 -1.003,-1.038 -1.505,-2.468 -1.505,-4.288 0,-1.869 0.465,-3.338 1.396,-4.407 0.931,-1.068 2.21,-1.603 3.838,-1.603 1.51,0 2.703,0.458 3.579,1.375 0.875,0.918 1.313,2.18 1.313,3.786 v 1.314 h -7.624 c 0.034,1.11 0.334,1.964 0.9,2.56 0.565,0.597 1.362,0.896 2.39,0.896 0.676,0 1.305,-0.064 1.888,-0.191 0.583,-0.128 1.208,-0.34 1.877,-0.637 v 1.976 c -0.593,0.283 -1.193,0.483 -1.8,0.601 -0.607,0.118 -1.299,0.175 -2.078,0.175 z m -0.445,-10.014 c -0.772,0 -1.392,0.245 -1.857,0.734 -0.465,0.49 -0.743,1.204 -0.833,2.142 h 5.193 c -0.014,-0.945 -0.242,-1.66 -0.683,-2.146 -0.441,-0.486 -1.048,-0.73 -1.82,-0.73 z"
         id="path4126"
         inkscape:connector-curvature="0"
         style="fill:#e6e6e5" /><path
         d="m 126.984,173.886 -0.486,-1.593 h -0.082 c -0.553,0.696 -1.107,1.171 -1.666,1.422 -0.559,0.252 -1.275,0.378 -2.152,0.378 -1.123,0 -2,-0.304 -2.631,-0.91 -0.633,-0.607 -0.947,-1.466 -0.947,-2.576 0,-1.179 0.438,-2.068 1.314,-2.669 0.875,-0.6 2.209,-0.928 4.002,-0.982 l 1.977,-0.063 v -0.61 c 0,-0.73 -0.172,-1.277 -0.512,-1.64 -0.342,-0.361 -0.871,-0.543 -1.588,-0.543 -0.586,0 -1.148,0.087 -1.688,0.259 -0.537,0.173 -1.055,0.376 -1.551,0.61 l -0.787,-1.737 c 0.621,-0.324 1.301,-0.571 2.039,-0.74 0.738,-0.169 1.434,-0.253 2.09,-0.253 1.455,0 2.553,0.317 3.295,0.951 0.74,0.635 1.111,1.631 1.111,2.989 v 7.707 z m -3.621,-1.656 c 0.883,0 1.592,-0.246 2.127,-0.739 0.533,-0.493 0.801,-1.185 0.801,-2.074 v -0.993 l -1.469,0.063 c -1.145,0.041 -1.977,0.232 -2.498,0.574 -0.521,0.341 -0.781,0.863 -0.781,1.566 0,0.511 0.152,0.905 0.455,1.185 0.305,0.279 0.76,0.418 1.365,0.418 z"
         id="path4128"
         inkscape:connector-curvature="0"
         style="fill:#e6e6e5" /><path
         d="m 138.53,170.627 c 0,1.117 -0.407,1.975 -1.221,2.571 -0.813,0.596 -1.979,0.895 -3.496,0.895 -1.524,0 -2.749,-0.231 -3.673,-0.693 v -2.1 c 1.345,0.62 2.597,0.931 3.755,0.931 1.497,0 2.245,-0.451 2.245,-1.354 0,-0.29 -0.083,-0.531 -0.248,-0.725 -0.166,-0.193 -0.438,-0.393 -0.817,-0.6 -0.379,-0.207 -0.907,-0.441 -1.583,-0.704 -1.317,-0.51 -2.208,-1.021 -2.674,-1.53 -0.466,-0.511 -0.698,-1.173 -0.698,-1.986 0,-0.979 0.395,-1.739 1.185,-2.281 0.789,-0.541 1.863,-0.812 3.223,-0.812 1.345,0 2.617,0.272 3.816,0.816 l -0.786,1.831 c -1.234,-0.51 -2.272,-0.766 -3.113,-0.766 -1.283,0 -1.924,0.366 -1.924,1.097 0,0.359 0.167,0.662 0.501,0.91 0.335,0.249 1.064,0.59 2.188,1.024 0.944,0.366 1.631,0.7 2.059,1.004 0.427,0.303 0.744,0.653 0.951,1.05 0.207,0.397 0.31,0.87 0.31,1.422 z"
         id="path4130"
         inkscape:connector-curvature="0"
         style="fill:#e6e6e5" /><path
         d="m 150.034,168.145 c 0,1.869 -0.479,3.327 -1.438,4.376 -0.959,1.048 -2.293,1.572 -4.004,1.572 -1.068,0 -2.014,-0.241 -2.834,-0.725 -0.821,-0.482 -1.452,-1.176 -1.894,-2.079 -0.442,-0.903 -0.662,-1.951 -0.662,-3.145 0,-1.855 0.477,-3.303 1.428,-4.345 0.952,-1.041 2.293,-1.562 4.024,-1.562 1.655,0 2.965,0.532 3.931,1.598 0.966,1.066 1.449,2.503 1.449,4.31 z m -8.327,0 c 0,2.642 0.976,3.962 2.928,3.962 1.931,0 2.896,-1.32 2.896,-3.962 0,-2.613 -0.973,-3.921 -2.918,-3.921 -1.021,0 -1.76,0.339 -2.219,1.015 -0.457,0.675 -0.687,1.644 -0.687,2.906 z"
         id="path4132"
         inkscape:connector-curvature="0"
         style="fill:#e6e6e5" /><path
         d="m 161.621,173.886 h -2.441 v -7.034 c 0,-0.883 -0.178,-1.541 -0.532,-1.976 -0.355,-0.435 -0.919,-0.652 -1.691,-0.652 -1.027,0 -1.779,0.304 -2.255,0.911 -0.477,0.606 -0.714,1.624 -0.714,3.051 v 5.7 h -2.431 v -11.441 h 1.903 l 0.341,1.5 h 0.124 c 0.345,-0.544 0.835,-0.965 1.469,-1.262 0.635,-0.296 1.338,-0.444 2.11,-0.444 2.745,0 4.117,1.396 4.117,4.189 z"
         id="path4134"
         inkscape:connector-curvature="0"
         style="fill:#e6e6e5" /></g><g
       id="g4144"><path
         d="m 55.729,143.313 h 6.922 v 8.644 c -1.879,0.644 -3.945,0.966 -6.198,0.966 -2.472,0 -4.382,-0.717 -5.731,-2.15 -1.349,-1.433 -2.024,-3.478 -2.024,-6.132 0,-2.589 0.739,-4.604 2.216,-6.044 1.477,-1.44 3.547,-2.161 6.208,-2.161 1.009,0 1.962,0.096 2.858,0.285 0.896,0.19 1.676,0.432 2.342,0.725 l -1.371,3.4 c -1.156,-0.57 -2.424,-0.855 -3.807,-0.855 -1.265,0 -2.243,0.411 -2.934,1.233 -0.691,0.823 -1.037,1.998 -1.037,3.526 0,1.5 0.313,2.643 0.938,3.429 0.625,0.786 1.526,1.179 2.704,1.179 0.644,0 1.236,-0.062 1.777,-0.187 v -2.512 h -2.863 z"
         id="path4138"
         inkscape:connector-curvature="0"
         style="fill:#e6e6e5" /><path
         d="m 78.185,144.345 c 0,2.677 -0.737,4.738 -2.21,6.187 -1.473,1.449 -3.545,2.172 -6.214,2.172 h -5.188 v -16.037 h 5.551 c 2.574,0 4.561,0.658 5.961,1.975 1.4,1.317 2.1,3.216 2.1,5.703 z m -4.497,0.153 c 0,-1.47 -0.291,-2.56 -0.872,-3.269 -0.581,-0.709 -1.464,-1.064 -2.649,-1.064 h -1.262 v 8.984 h 0.965 c 1.316,0 2.282,-0.383 2.896,-1.146 0.614,-0.765 0.922,-1.933 0.922,-3.505 z"
         id="path4140"
         inkscape:connector-curvature="0"
         style="fill:#e6e6e5" /><path
         d="m 86.15,143.313 h 6.922 v 8.644 c -1.879,0.644 -3.945,0.966 -6.198,0.966 -2.472,0 -4.382,-0.717 -5.731,-2.15 -1.349,-1.433 -2.024,-3.478 -2.024,-6.132 0,-2.589 0.739,-4.604 2.216,-6.044 1.477,-1.44 3.547,-2.161 6.208,-2.161 1.009,0 1.962,0.096 2.858,0.285 0.896,0.19 1.676,0.432 2.342,0.725 l -1.371,3.4 c -1.156,-0.57 -2.424,-0.855 -3.807,-0.855 -1.265,0 -2.243,0.411 -2.934,1.233 -0.691,0.823 -1.037,1.998 -1.037,3.526 0,1.5 0.313,2.643 0.938,3.429 0.625,0.786 1.526,1.179 2.704,1.179 0.644,0 1.236,-0.062 1.777,-0.187 v -2.512 H 86.15 Z"
         id="path4142"
         inkscape:connector-curvature="0"
         style="fill:#e6e6e5" /></g><radialGradient
       id="radialGradient4472"
       cx="-310.26501"
       cy="192.9653"
       r="20.113701"
       gradientTransform="matrix(0.498,0,0,0.498,172.2891,79.7388)"
       gradientUnits="userSpaceOnUse"><stop
         offset="0"
         style="stop-color:#FFCF4F"
         id="stop4468" /><stop
         offset="1"
         style="stop-color:#F4C236"
         id="stop4470" /></radialGradient><path
       d="m 9.068,187 h 6.791 c 1.607,0 3.604,-1.128 4.432,-2.511 l 5.72,-9.519 c 0.677,-1.396 0.653,-3.426 -0.119,-4.713 l -3.378,-5.592 z"
       id="path4151"
       inkscape:connector-curvature="0"
       style="fill:url(#SVGID_9_)" /><radialGradient
       id="radialGradient4479"
       cx="-322.31671"
       cy="182.75079"
       r="27.658199"
       gradientTransform="matrix(0.498,0,0,0.498,172.2891,79.7388)"
       gradientUnits="userSpaceOnUse"><stop
         offset="0"
         style="stop-color:#08A960"
         id="stop4475" /><stop
         offset="1"
         style="stop-color:#07914B"
         id="stop4477" /></radialGradient><path
       d="M 16.368,159.514 1.266,184.763 C 0.683,186.011 1.289,187 2.787,187 h 6.281 l 13.446,-22.335 -6.146,-10.173 c 0.829,1.378 0.829,3.638 0,5.022"
       id="path4158"
       inkscape:connector-curvature="0"
       style="fill:url(#SVGID_10_)" /><radialGradient
       id="radialGradient4486"
       cx="-312.86511"
       cy="143.06911"
       r="40.540001"
       gradientTransform="matrix(0.498,0,0,0.498,172.2891,79.7388)"
       gradientUnits="userSpaceOnUse"><stop
         offset="0"
         style="stop-color:#567FC0"
         id="stop4482" /><stop
         offset="1"
         style="stop-color:#557FC0"
         id="stop4484" /></radialGradient><path
       d="m 2.787,127 c -1.613,0 -2.254,1.133 -1.424,2.511 l 24.529,40.745 c 0.772,1.288 0.795,3.317 0.119,4.713 L 31.974,165.044 9.072,127 Z"
       id="path4165"
       inkscape:connector-curvature="0"
       style="fill:url(#SVGID_11_)" /><radialGradient
       id="radialGradient4493"
       cx="-300.80109"
       cy="133.1039"
       r="33.058399"
       gradientTransform="matrix(0.498,0,0,0.498,172.2891,79.7388)"
       gradientUnits="userSpaceOnUse"><stop
         offset="0"
         style="stop-color:#E14C40"
         id="stop4489" /><stop
         offset="1"
         style="stop-color:#CD392D"
         id="stop4491" /></radialGradient><path
       d="m 9.072,127 22.903,38.045 3.321,-5.53 c 0.83,-1.385 0.83,-3.645 0,-5.023 L 20.292,129.511 C 19.463,128.133 17.467,127 15.86,127 Z"
       id="path4172"
       inkscape:connector-curvature="0"
       style="fill:url(#SVGID_12_)" /></g></g><g
   inkscape:groupmode="layer"
   id="layer3"
   inkscape:label="AKBC-bg"><rect
     id="rect3729-6-5"
     width="114.21892"
     height="37.760433"
     x="1.030776"
     y="75.382805"
     style="display:inline;fill:#d8d8d8;stroke:#343434;stroke-width:1.68110597;stroke-miterlimit:4;stroke-dasharray:none;stroke-opacity:1;fill-opacity:1" /><rect
     id="rect3729-6"
     width="114.21892"
     height="37.760433"
     x="0.81834453"
     y="11.547776"
     style="display:inline;fill:#ffffff;stroke:#990e0e;stroke-width:1.68110597;stroke-miterlimit:4;stroke-dasharray:none;stroke-opacity:1;fill-opacity:1" /><rect
     id="rect3729-6-4"
     width="114.21892"
     height="37.760433"
     x="0.81834888"
     y="138.04947"
     style="display:inline;fill:#ffffff;stroke:#990e0e;stroke-width:1.68110597;stroke-miterlimit:4;stroke-dasharray:none;stroke-opacity:1;fill-opacity:1" /></g><g
   inkscape:groupmode="layer"
   id="layer1"
   inkscape:label="AKBC"
   style="display:inline"><rect
     id="rect3729-8-27"
     width="57.329319"
     height="37.760433"
     x="57.707947"
     y="11.547776"
     style="fill:#990e0e;fill-opacity:1;stroke:#990e0e;stroke-width:1.19100738;stroke-miterlimit:4;stroke-dasharray:none;stroke-opacity:1" /><g
     aria-label="AKBC"
     transform="translate(-186.13028,-120.67883)"
     style="font-style:normal;font-weight:normal;font-size:40px;line-height:1.25;font-family:sans-serif;letter-spacing:0px;word-spacing:0px;fill:#000000;fill-opacity:1;stroke:none"
     id="flowRoot3713-9"><path
       d="m 190.9834,163.48198 7.96875,-26.92968 q 0.46875,-1.47657 1.96875,-1.47657 1.45312,0 1.82812,1.24219 l 7.85157,27.35156 q 0.0937,0.30469 0.0937,0.58594 0,0.82031 -0.5625,1.40625 -0.5625,0.5625 -1.28907,0.5625 -1.54687,0 -1.96875,-1.42969 l -1.59375,-5.34375 h -8.97656 l -1.73437,5.71875 q -0.0703,0.375 -0.58594,0.72657 -0.51563,0.32812 -1.125,0.32812 -0.86719,0 -1.42969,-0.58594 -0.5625,-0.58593 -0.5625,-1.42968 0,-0.35157 0.11719,-0.72657 z m 9.89062,-19.28906 -3.375,11.27344 h 6.63282 z"
       style="fill:#990e0e;fill-opacity:1"
       id="path6387" /><path
       d="m 219.78809,164.25542 v -27.16406 q 0,-0.84375 0.5625,-1.42969 0.58593,-0.58594 1.40625,-0.58594 0.82031,0 1.38281,0.58594 0.58594,0.5625 0.58594,1.38281 v 9.30469 l 12.60937,-10.75781 q 0.65625,-0.53906 1.47656,-0.53906 0.82032,0 1.38282,0.60937 0.5625,0.60938 0.5625,1.40625 0,0.82031 -0.63282,1.35938 l -14.29687,12.14062 14.29687,12.35156 q 0.58594,0.49219 0.58594,1.26563 0,0.77344 -0.58594,1.40625 -0.5625,0.63281 -1.40625,0.63281 -0.79687,0 -1.42968,-0.53906 l -12.5625,-10.82813 v 9.39844 q 0,0.82031 -0.58594,1.40625 -0.5625,0.5625 -1.38281,0.5625 -0.79688,0 -1.38282,-0.5625 -0.58593,-0.58594 -0.58593,-1.40625 z"
       style="fill:#990e0e;fill-opacity:1"
       id="path6389" /><path
       d="m 268.63184,156.56792 v 1.73438 q 0,3.25781 -2.32032,5.60156 -2.29687,2.32031 -5.55468,2.32031 h -12.04688 v -31.14844 h 12.04688 q 3.25781,0 5.55468,2.32032 2.32032,2.32031 2.32032,5.60156 v 1.66406 q 0,3.49219 -2.69532,5.95313 2.69532,2.50781 2.69532,5.95312 z m -4.03125,-11.95312 v -1.61719 q 0,-1.64063 -1.17188,-2.8125 -1.14844,-1.17188 -2.76562,-1.17188 h -8.01563 v 9.53907 h 8.01563 q 1.59375,0 2.76562,-1.14844 1.17188,-1.17188 1.17188,-2.78906 z m 0,13.6875 v -1.64063 q 0,-1.64062 -1.17188,-2.8125 -1.14844,-1.17187 -2.76562,-1.17187 h -7.96875 v 9.5625 h 7.96875 q 1.59375,0 2.76562,-1.14844 1.17188,-1.17188 1.17188,-2.78906 z"
       style="font-style:normal;font-variant:normal;font-weight:normal;font-stretch:normal;font-family:'OCR A Extended';-inkscape-font-specification:'OCR A Extended';fill:#ffffff;fill-opacity:1"
       id="path6391" /><path
       d="m 288.57715,162.28667 h 7.10156 q 0.82031,0 1.40625,0.58594 0.60938,0.5625 0.60938,1.38281 0,0.82031 -0.60938,1.40625 -0.58594,0.5625 -1.40625,0.5625 h -7.35937 q -1.40625,0 -2.90625,-0.89062 -1.5,-0.89063 -2.08594,-1.99219 l -4.54688,-8.78906 q -0.91406,-1.89844 -0.91406,-3.89063 0,-2.20312 0.86719,-3.82031 l 4.59375,-8.69531 q 0.65625,-1.21875 2.03906,-2.13282 1.38281,-0.9375 2.67188,-0.9375 h 7.78125 q 0.82031,0 1.38281,0.58594 0.58594,0.58594 0.58594,1.38281 0,0.82032 -0.58594,1.42969 -0.5625,0.58594 -1.38281,0.58594 h -7.5 q -0.9375,0 -1.52344,1.10156 l -4.35938,8.15625 q -0.51562,0.96094 -0.51562,2.27344 0,1.38281 0.5625,2.4375 l 4.17187,8.01562 q 0.58594,1.24219 1.92188,1.24219 z"
       style="font-style:normal;font-variant:normal;font-weight:normal;font-stretch:normal;font-family:'OCR A Extended';-inkscape-font-specification:'OCR A Extended';fill:#ffffff;fill-opacity:1"
       id="path6393" /></g><g
     aria-label="2019"
     style="font-style:normal;font-weight:normal;font-size:40px;line-height:1.25;font-family:sans-serif;letter-spacing:0px;word-spacing:0px;fill:url(#linearGradient5686);fill-opacity:1;stroke:none;stroke-width:0.99999994"
     id="text4571-4"><path
       d="m 143.54494,45.546989 h -17.90625 v -13.59375 q 0,-1.640625 1.14844,-2.8125 1.17188,-1.171875 2.78906,-1.171875 h 11.95313 v -9.585937 h -14.0625 q -0.84375,0 -1.40625,-0.5625 -0.5625,-0.585938 -0.5625,-1.40625 0,-0.820313 0.5625,-1.382813 0.5625,-0.585937 1.40625,-0.585937 h 14.0625 q 1.64062,0 2.8125,1.171875 1.17187,1.148437 1.17187,2.765625 v 9.585937 q 0,1.664063 -1.17187,2.835938 -1.17188,1.148437 -2.8125,1.148437 h -11.95313 v 9.65625 h 13.96875 q 0.79688,0 1.38282,0.585938 0.58593,0.5625 0.58593,1.382812 0,0.820313 -0.58593,1.40625 -0.58594,0.5625 -1.38282,0.5625 z"
       style="font-style:normal;font-variant:normal;font-weight:normal;font-stretch:normal;font-size:48px;font-family:'OCR A Extended';-inkscape-font-specification:'OCR A Extended';fill:#990e0e;fill-opacity:1;stroke-width:0.99999994"
       id="path6378" /><path
       d="M 154.56057,41.750114 V 18.195427 q 0,-1.546875 1.125,-2.671875 1.125,-1.125 2.67187,-1.125 h 12.28125 q 1.52344,0 2.625,1.125 1.125,1.125 1.125,2.671875 v 23.554687 q 0,1.570313 -1.125,2.695313 -1.10156,1.101562 -2.67187,1.101562 h -12.23438 q -1.59375,0 -2.69531,-1.101562 -1.10156,-1.125 -1.10156,-2.695313 z m 15.9375,-0.140625 V 18.382927 h -12 v 23.226562 z"
       style="font-style:normal;font-variant:normal;font-weight:normal;font-stretch:normal;font-size:48px;font-family:'OCR A Extended';-inkscape-font-specification:'OCR A Extended';fill:#990e0e;fill-opacity:1;stroke-width:0.99999994"
       id="path6380" /><path
       d="m 185.45119,41.609489 h 6.04688 V 18.382927 h -5.95313 q -0.82031,0 -1.40625,-0.5625 -0.5625,-0.585938 -0.5625,-1.40625 0,-0.820313 0.5625,-1.382813 0.58594,-0.585937 1.40625,-0.585937 h 9.89063 v 27.164062 h 3.9375 v -8.203125 q 0,-0.796875 0.5625,-1.382812 0.58594,-0.585938 1.40625,-0.585938 0.82031,0 1.38281,0.585938 0.58594,0.5625 0.58594,1.382812 v 10.171875 q 0,0.820313 -0.58594,1.40625 -0.5625,0.5625 -1.38281,0.5625 h -15.89063 q -0.82031,0 -1.40625,-0.585937 -0.5625,-0.609375 -0.5625,-1.429688 0,-0.796875 0.5625,-1.359375 0.58594,-0.5625 1.40625,-0.5625 z"
       style="font-style:normal;font-variant:normal;font-weight:normal;font-stretch:normal;font-size:48px;font-family:'OCR A Extended';-inkscape-font-specification:'OCR A Extended';fill:#990e0e;fill-opacity:1;stroke-width:0.99999994"
       id="path6382" /><path
       d="m 230.45119,45.500114 h -1.96875 q -0.79687,0 -1.38281,-0.5625 -0.58594,-0.585937 -0.58594,-1.40625 0,-0.820312 0.5625,-1.382812 0.58594,-0.585938 1.40625,-0.585938 V 28.554802 h -13.875 q -0.79687,0 -1.38281,-0.585938 -0.58594,-0.585937 -0.58594,-1.382812 v -10.21875 q 0,-0.796875 0.58594,-1.382813 0.58594,-0.585937 1.38281,-0.585937 h 15.84375 q 0.79688,0 1.38282,0.585937 0.58593,0.585938 0.58593,1.382813 v 27.164062 q 0,0.820313 -0.58593,1.40625 -0.5625,0.5625 -1.38282,0.5625 z m -1.92187,-20.929687 v -6.1875 h -11.95313 v 6.1875 z"
       style="font-style:normal;font-variant:normal;font-weight:normal;font-stretch:normal;font-size:48px;font-family:'OCR A Extended';-inkscape-font-specification:'OCR A Extended';fill:#990e0e;fill-opacity:1;stroke-width:0.99999994"
       id="path6384" /></g><rect
     id="rect3729-8-27-7"
     width="57.329319"
     height="37.760429"
     x="57.92038"
     y="75.382805"
     style="display:inline;fill:#343434;fill-opacity:1;stroke:#343434;stroke-width:1.19100726;stroke-miterlimit:4;stroke-dasharray:none;stroke-opacity:1" /><g
     aria-label="AKBC"
     transform="translate(-185.91785,-56.843796)"
     style="font-style:normal;font-weight:normal;font-size:40px;line-height:1.25;font-family:sans-serif;letter-spacing:0px;word-spacing:0px;display:inline;fill:#000000;fill-opacity:1;stroke:none"
     id="flowRoot3713-9-1"><path
       d="m 190.9834,163.48198 7.96875,-26.92968 q 0.46875,-1.47657 1.96875,-1.47657 1.45312,0 1.82812,1.24219 l 7.85157,27.35156 q 0.0937,0.30469 0.0937,0.58594 0,0.82031 -0.5625,1.40625 -0.5625,0.5625 -1.28907,0.5625 -1.54687,0 -1.96875,-1.42969 l -1.59375,-5.34375 h -8.97656 l -1.73437,5.71875 q -0.0703,0.375 -0.58594,0.72657 -0.51563,0.32812 -1.125,0.32812 -0.86719,0 -1.42969,-0.58594 -0.5625,-0.58593 -0.5625,-1.42968 0,-0.35157 0.11719,-0.72657 z m 9.89062,-19.28906 -3.375,11.27344 h 6.63282 z"
       style="fill:#343434;fill-opacity:1"
       id="path6360" /><path
       d="m 219.78809,164.25542 v -27.16406 q 0,-0.84375 0.5625,-1.42969 0.58593,-0.58594 1.40625,-0.58594 0.82031,0 1.38281,0.58594 0.58594,0.5625 0.58594,1.38281 v 9.30469 l 12.60937,-10.75781 q 0.65625,-0.53906 1.47656,-0.53906 0.82032,0 1.38282,0.60937 0.5625,0.60938 0.5625,1.40625 0,0.82031 -0.63282,1.35938 l -14.29687,12.14062 14.29687,12.35156 q 0.58594,0.49219 0.58594,1.26563 0,0.77344 -0.58594,1.40625 -0.5625,0.63281 -1.40625,0.63281 -0.79687,0 -1.42968,-0.53906 l -12.5625,-10.82813 v 9.39844 q 0,0.82031 -0.58594,1.40625 -0.5625,0.5625 -1.38281,0.5625 -0.79688,0 -1.38282,-0.5625 -0.58593,-0.58594 -0.58593,-1.40625 z"
       style="fill:#343434;fill-opacity:1"
       id="path6362" /><path
       d="m 268.63184,156.56792 v 1.73438 q 0,3.25781 -2.32032,5.60156 -2.29687,2.32031 -5.55468,2.32031 h -12.04688 v -31.14844 h 12.04688 q 3.25781,0 5.55468,2.32032 2.32032,2.32031 2.32032,5.60156 v 1.66406 q 0,3.49219 -2.69532,5.95313 2.69532,2.50781 2.69532,5.95312 z m -4.03125,-11.95312 v -1.61719 q 0,-1.64063 -1.17188,-2.8125 -1.14844,-1.17188 -2.76562,-1.17188 h -8.01563 v 9.53907 h 8.01563 q 1.59375,0 2.76562,-1.14844 1.17188,-1.17188 1.17188,-2.78906 z m 0,13.6875 v -1.64063 q 0,-1.64062 -1.17188,-2.8125 -1.14844,-1.17187 -2.76562,-1.17187 h -7.96875 v 9.5625 h 7.96875 q 1.59375,0 2.76562,-1.14844 1.17188,-1.17188 1.17188,-2.78906 z"
       style="font-style:normal;font-variant:normal;font-weight:normal;font-stretch:normal;font-family:'OCR A Extended';-inkscape-font-specification:'OCR A Extended';fill:#d8d8d8;fill-opacity:1"
       id="path6364" /><path
       d="m 288.57715,162.28667 h 7.10156 q 0.82031,0 1.40625,0.58594 0.60938,0.5625 0.60938,1.38281 0,0.82031 -0.60938,1.40625 -0.58594,0.5625 -1.40625,0.5625 h -7.35937 q -1.40625,0 -2.90625,-0.89062 -1.5,-0.89063 -2.08594,-1.99219 l -4.54688,-8.78906 q -0.91406,-1.89844 -0.91406,-3.89063 0,-2.20312 0.86719,-3.82031 l 4.59375,-8.69531 q 0.65625,-1.21875 2.03906,-2.13282 1.38281,-0.9375 2.67188,-0.9375 h 7.78125 q 0.82031,0 1.38281,0.58594 0.58594,0.58594 0.58594,1.38281 0,0.82032 -0.58594,1.42969 -0.5625,0.58594 -1.38281,0.58594 h -7.5 q -0.9375,0 -1.52344,1.10156 l -4.35938,8.15625 q -0.51562,0.96094 -0.51562,2.27344 0,1.38281 0.5625,2.4375 l 4.17187,8.01562 q 0.58594,1.24219 1.92188,1.24219 z"
       style="font-style:normal;font-variant:normal;font-weight:normal;font-stretch:normal;font-family:'OCR A Extended';-inkscape-font-specification:'OCR A Extended';fill:#d8d8d8;fill-opacity:1"
       id="path6366" /></g><g
     aria-label="2019"
     style="font-style:normal;font-weight:normal;font-size:40px;line-height:1.25;font-family:sans-serif;letter-spacing:0px;word-spacing:0px;display:inline;fill:#000000;fill-opacity:1;stroke:none;stroke-width:0.99999994"
     id="text4571-4-6"><path
       d="M 143.75737,109.38201 H 125.85112 V 95.788261 q 0,-1.640625 1.14844,-2.8125 1.17187,-1.171875 2.78906,-1.171875 h 11.95312 v -9.585937 h -14.0625 q -0.84375,0 -1.40625,-0.5625 -0.5625,-0.585938 -0.5625,-1.40625 0,-0.820313 0.5625,-1.382813 0.5625,-0.585937 1.40625,-0.585937 h 14.0625 q 1.64063,0 2.8125,1.171875 1.17188,1.148437 1.17188,2.765625 v 9.585937 q 0,1.664063 -1.17188,2.835938 -1.17187,1.148437 -2.8125,1.148437 h -11.95312 v 9.656249 h 13.96875 q 0.79687,0 1.38281,0.58594 0.58594,0.5625 0.58594,1.38281 0,0.82031 -0.58594,1.40625 -0.58594,0.5625 -1.38281,0.5625 z"
       style="font-style:normal;font-variant:normal;font-weight:normal;font-stretch:normal;font-size:48px;font-family:'OCR A Extended';-inkscape-font-specification:'OCR A Extended';fill:#343434;fill-opacity:1;stroke-width:0.99999994"
       id="path6369" /><path
       d="M 154.77299,105.58514 V 82.030449 q 0,-1.546875 1.125,-2.671875 1.125,-1.125 2.67188,-1.125 h 12.28125 q 1.52344,0 2.625,1.125 1.125,1.125 1.125,2.671875 v 23.554691 q 0,1.57031 -1.125,2.69531 -1.10156,1.10156 -2.67188,1.10156 h -12.23437 q -1.59375,0 -2.69531,-1.10156 -1.10157,-1.125 -1.10157,-2.69531 z m 15.9375,-0.14063 V 82.217949 h -12 v 23.226561 z"
       style="font-style:normal;font-variant:normal;font-weight:normal;font-stretch:normal;font-size:48px;font-family:'OCR A Extended';-inkscape-font-specification:'OCR A Extended';fill:#343434;fill-opacity:1;stroke-width:0.99999994"
       id="path6371" /><path
       d="m 185.66362,105.44451 h 6.04687 V 82.217949 h -5.95312 q -0.82031,0 -1.40625,-0.5625 -0.5625,-0.585938 -0.5625,-1.40625 0,-0.820313 0.5625,-1.382813 0.58594,-0.585937 1.40625,-0.585937 h 9.89062 v 27.164061 h 3.9375 v -8.203124 q 0,-0.796875 0.5625,-1.382812 0.58594,-0.585938 1.40625,-0.585938 0.82032,0 1.38282,0.585938 0.58593,0.5625 0.58593,1.382812 v 10.171874 q 0,0.82031 -0.58593,1.40625 -0.5625,0.5625 -1.38282,0.5625 h -15.89062 q -0.82031,0 -1.40625,-0.58594 -0.5625,-0.60937 -0.5625,-1.42968 0,-0.79688 0.5625,-1.35938 0.58594,-0.5625 1.40625,-0.5625 z"
       style="font-style:normal;font-variant:normal;font-weight:normal;font-stretch:normal;font-size:48px;font-family:'OCR A Extended';-inkscape-font-specification:'OCR A Extended';fill:#343434;fill-opacity:1;stroke-width:0.99999994"
       id="path6373" /><path
       d="m 230.66362,109.33514 h -1.96875 q -0.79688,0 -1.38281,-0.5625 -0.58594,-0.58594 -0.58594,-1.40625 0,-0.82032 0.5625,-1.38282 0.58594,-0.58593 1.40625,-0.58593 V 92.389824 h -13.875 q -0.79688,0 -1.38281,-0.585938 -0.58594,-0.585937 -0.58594,-1.382812 v -10.21875 q 0,-0.796875 0.58594,-1.382813 0.58593,-0.585937 1.38281,-0.585937 h 15.84375 q 0.79687,0 1.38281,0.585937 0.58594,0.585938 0.58594,1.382813 v 27.164066 q 0,0.82031 -0.58594,1.40625 -0.5625,0.5625 -1.38281,0.5625 z m -1.92188,-20.929691 v -6.1875 h -11.95312 v 6.1875 z"
       style="font-style:normal;font-variant:normal;font-weight:normal;font-stretch:normal;font-size:48px;font-family:'OCR A Extended';-inkscape-font-specification:'OCR A Extended';fill:#343434;fill-opacity:1;stroke-width:0.99999994"
       id="path6375" /></g><rect
     id="rect3729-8-27-3"
     width="57.329319"
     height="37.760429"
     x="57.707951"
     y="138.04947"
     style="display:inline;fill:#990e0e;fill-opacity:1;stroke:#990e0e;stroke-width:1.19100726;stroke-miterlimit:4;stroke-dasharray:none;stroke-opacity:1" /><g
     aria-label="AKBC"
     transform="translate(-186.13028,5.8228698)"
     style="font-style:normal;font-weight:normal;font-size:40px;line-height:1.25;font-family:sans-serif;letter-spacing:0px;word-spacing:0px;display:inline;fill:#000000;fill-opacity:1;stroke:none"
     id="flowRoot3713-9-8"><path
       d="m 190.9834,163.48198 7.96875,-26.92968 q 0.46875,-1.47657 1.96875,-1.47657 1.45312,0 1.82812,1.24219 l 7.85157,27.35156 q 0.0937,0.30469 0.0937,0.58594 0,0.82031 -0.5625,1.40625 -0.5625,0.5625 -1.28907,0.5625 -1.54687,0 -1.96875,-1.42969 l -1.59375,-5.34375 h -8.97656 l -1.73437,5.71875 q -0.0703,0.375 -0.58594,0.72657 -0.51563,0.32812 -1.125,0.32812 -0.86719,0 -1.42969,-0.58594 -0.5625,-0.58593 -0.5625,-1.42968 0,-0.35157 0.11719,-0.72657 z m 9.89062,-19.28906 -3.375,11.27344 h 6.63282 z"
       style="fill:#990e0e;fill-opacity:1"
       id="path6351" /><path
       d="m 219.78809,164.25542 v -27.16406 q 0,-0.84375 0.5625,-1.42969 0.58593,-0.58594 1.40625,-0.58594 0.82031,0 1.38281,0.58594 0.58594,0.5625 0.58594,1.38281 v 9.30469 l 12.60937,-10.75781 q 0.65625,-0.53906 1.47656,-0.53906 0.82032,0 1.38282,0.60937 0.5625,0.60938 0.5625,1.40625 0,0.82031 -0.63282,1.35938 l -14.29687,12.14062 14.29687,12.35156 q 0.58594,0.49219 0.58594,1.26563 0,0.77344 -0.58594,1.40625 -0.5625,0.63281 -1.40625,0.63281 -0.79687,0 -1.42968,-0.53906 l -12.5625,-10.82813 v 9.39844 q 0,0.82031 -0.58594,1.40625 -0.5625,0.5625 -1.38281,0.5625 -0.79688,0 -1.38282,-0.5625 -0.58593,-0.58594 -0.58593,-1.40625 z"
       style="fill:#990e0e;fill-opacity:1"
       id="path6353" /><path
       d="m 268.63184,156.56792 v 1.73438 q 0,3.25781 -2.32032,5.60156 -2.29687,2.32031 -5.55468,2.32031 h -12.04688 v -31.14844 h 12.04688 q 3.25781,0 5.55468,2.32032 2.32032,2.32031 2.32032,5.60156 v 1.66406 q 0,3.49219 -2.69532,5.95313 2.69532,2.50781 2.69532,5.95312 z m -4.03125,-11.95312 v -1.61719 q 0,-1.64063 -1.17188,-2.8125 -1.14844,-1.17188 -2.76562,-1.17188 h -8.01563 v 9.53907 h 8.01563 q 1.59375,0 2.76562,-1.14844 1.17188,-1.17188 1.17188,-2.78906 z m 0,13.6875 v -1.64063 q 0,-1.64062 -1.17188,-2.8125 -1.14844,-1.17187 -2.76562,-1.17187 h -7.96875 v 9.5625 h 7.96875 q 1.59375,0 2.76562,-1.14844 1.17188,-1.17188 1.17188,-2.78906 z"
       style="font-style:normal;font-variant:normal;font-weight:normal;font-stretch:normal;font-family:'OCR A Extended';-inkscape-font-specification:'OCR A Extended';fill:#ffffff;fill-opacity:1"
       id="path6355" /><path
       d="m 288.57715,162.28667 h 7.10156 q 0.82031,0 1.40625,0.58594 0.60938,0.5625 0.60938,1.38281 0,0.82031 -0.60938,1.40625 -0.58594,0.5625 -1.40625,0.5625 h -7.35937 q -1.40625,0 -2.90625,-0.89062 -1.5,-0.89063 -2.08594,-1.99219 l -4.54688,-8.78906 q -0.91406,-1.89844 -0.91406,-3.89063 0,-2.20312 0.86719,-3.82031 l 4.59375,-8.69531 q 0.65625,-1.21875 2.03906,-2.13282 1.38281,-0.9375 2.67188,-0.9375 h 7.78125 q 0.82031,0 1.38281,0.58594 0.58594,0.58594 0.58594,1.38281 0,0.82032 -0.58594,1.42969 -0.5625,0.58594 -1.38281,0.58594 h -7.5 q -0.9375,0 -1.52344,1.10156 l -4.35938,8.15625 q -0.51562,0.96094 -0.51562,2.27344 0,1.38281 0.5625,2.4375 l 4.17187,8.01562 q 0.58594,1.24219 1.92188,1.24219 z"
       style="font-style:normal;font-variant:normal;font-weight:normal;font-stretch:normal;font-family:'OCR A Extended';-inkscape-font-specification:'OCR A Extended';fill:#ffffff;fill-opacity:1"
       id="path6357" /></g><g
     aria-label="2019"
     style="font-style:normal;font-weight:normal;font-size:40px;line-height:1.25;font-family:sans-serif;letter-spacing:0px;word-spacing:0px;display:inline;fill:#000000;fill-opacity:1;stroke:none;stroke-width:0.99999994"
     id="text4571-4-8"><path
       d="m 143.54494,172.04869 h -17.90625 v -13.59375 q 0,-1.64062 1.14844,-2.8125 1.17188,-1.17187 2.78906,-1.17187 h 11.95313 v -9.58594 h -14.0625 q -0.84375,0 -1.40625,-0.5625 -0.5625,-0.58594 -0.5625,-1.40625 0,-0.82031 0.5625,-1.38281 0.5625,-0.58594 1.40625,-0.58594 h 14.0625 q 1.64062,0 2.8125,1.17187 1.17187,1.14844 1.17187,2.76563 v 9.58594 q 0,1.66406 -1.17187,2.83593 -1.17188,1.14844 -2.8125,1.14844 h -11.95313 v 9.65625 h 13.96875 q 0.79688,0 1.38282,0.58594 0.58593,0.5625 0.58593,1.38281 0,0.82031 -0.58593,1.40625 -0.58594,0.5625 -1.38282,0.5625 z"
       style="font-style:normal;font-variant:normal;font-weight:normal;font-stretch:normal;font-size:48px;font-family:'OCR A Extended';-inkscape-font-specification:'OCR A Extended';fill:#990e0e;fill-opacity:1;stroke:none;stroke-width:0.99999994;stroke-opacity:1"
       id="path6342" /><path
       d="m 154.56057,168.25182 v -23.55469 q 0,-1.54688 1.125,-2.67188 1.125,-1.125 2.67187,-1.125 h 12.28125 q 1.52344,0 2.625,1.125 1.125,1.125 1.125,2.67188 v 23.55469 q 0,1.57031 -1.125,2.69531 -1.10156,1.10156 -2.67187,1.10156 h -12.23438 q -1.59375,0 -2.69531,-1.10156 -1.10156,-1.125 -1.10156,-2.69531 z m 15.9375,-0.14063 v -23.22656 h -12 v 23.22656 z"
       style="font-style:normal;font-variant:normal;font-weight:normal;font-stretch:normal;font-size:48px;font-family:'OCR A Extended';-inkscape-font-specification:'OCR A Extended';fill:#990e0e;fill-opacity:1;stroke:none;stroke-width:0.99999994;stroke-opacity:1"
       id="path6344" /><path
       d="m 185.45119,168.11119 h 6.04688 v -23.22656 h -5.95313 q -0.82031,0 -1.40625,-0.5625 -0.5625,-0.58594 -0.5625,-1.40625 0,-0.82031 0.5625,-1.38281 0.58594,-0.58594 1.40625,-0.58594 h 9.89063 v 27.16406 h 3.9375 v -8.20312 q 0,-0.79688 0.5625,-1.38282 0.58594,-0.58593 1.40625,-0.58593 0.82031,0 1.38281,0.58593 0.58594,0.5625 0.58594,1.38282 v 10.17187 q 0,0.82031 -0.58594,1.40625 -0.5625,0.5625 -1.38281,0.5625 h -15.89063 q -0.82031,0 -1.40625,-0.58594 -0.5625,-0.60937 -0.5625,-1.42968 0,-0.79688 0.5625,-1.35938 0.58594,-0.5625 1.40625,-0.5625 z"
       style="font-style:normal;font-variant:normal;font-weight:normal;font-stretch:normal;font-size:48px;font-family:'OCR A Extended';-inkscape-font-specification:'OCR A Extended';fill:#990e0e;fill-opacity:1;stroke:none;stroke-width:0.99999994;stroke-opacity:1"
       id="path6346" /><path
       d="m 230.45119,172.00182 h -1.96875 q -0.79687,0 -1.38281,-0.5625 -0.58594,-0.58594 -0.58594,-1.40625 0,-0.82032 0.5625,-1.38282 0.58594,-0.58593 1.40625,-0.58593 V 155.0565 h -13.875 q -0.79687,0 -1.38281,-0.58593 -0.58594,-0.58594 -0.58594,-1.38282 V 142.869 q 0,-0.79687 0.58594,-1.38281 0.58594,-0.58594 1.38281,-0.58594 h 15.84375 q 0.79688,0 1.38282,0.58594 0.58593,0.58594 0.58593,1.38281 v 27.16407 q 0,0.82031 -0.58593,1.40625 -0.5625,0.5625 -1.38282,0.5625 z m -1.92187,-20.92969 v -6.1875 h -11.95313 v 6.1875 z"
       style="font-style:normal;font-variant:normal;font-weight:normal;font-stretch:normal;font-size:48px;font-family:'OCR A Extended';-inkscape-font-specification:'OCR A Extended';fill:#990e0e;fill-opacity:1;stroke:none;stroke-width:0.99999994;stroke-opacity:1"
       id="path6348" /></g></g></svg>