<?xml version="1.0" standalone="no"?>
<!DOCTYPE svg PUBLIC "-//W3C//DTD SVG 20010904//EN"
 "http://www.w3.org/TR/2001/REC-SVG-20010904/DTD/svg10.dtd">
<svg version="1.0" xmlns="http://www.w3.org/2000/svg"
 width="362.000000pt" height="362.000000pt" viewBox="0 0 362.000000 362.000000"
 preserveAspectRatio="xMidYMid meet">
<metadata>
Created by potrace 1.11, written by Peter Selinger 2001-2013
</metadata>
<g transform="translate(0.000000,362.000000) scale(0.100000,-0.100000)"
fill="#000000" stroke="none">
<path d="M1143 3416 c-132 -32 -238 -118 -301 -244 -36 -74 -37 -79 -37 -187
0 -108 1 -113 37 -186 67 -134 181 -225 312 -248 l41 -7 1 -150 1 -150 -29 -2
c-86 -7 -218 -87 -281 -172 -101 -137 -114 -321 -33 -477 54 -105 173 -193
296 -220 14 -3 62 -6 108 -6 l82 0 0 -234 0 -233 336 0 335 0 -20 -28 c-36
-52 -64 -151 -63 -232 3 -356 390 -562 686 -365 114 76 181 193 193 337 17
219 -138 420 -358 461 l-60 12 3 140 3 140 53 7 c150 22 294 150 341 303 70
229 -54 472 -284 550 -57 20 -182 27 -228 14 -18 -5 -33 -5 -36 0 -4 5 -5 124
-5 265 1 157 -3 259 -8 263 -6 3 -142 5 -302 5 l-292 -1 24 72 c71 210 -24
440 -223 540 -78 39 -204 53 -292 33z m197 -1021 l0 -154 -40 3 c-22 2 -43 5
-46 8 -5 5 -8 145 -5 253 l1 40 45 2 45 2 0 -154z m988 -1031 c9 -3 12 -38 11
-143 l-1 -139 -36 -6 c-72 -12 -67 -22 -65 146 1 84 2 154 2 155 1 2 73 -8 89
-13z"/>
</g>
</svg>
