<?xml version="1.0" encoding="utf-8"?>
<!-- Generator: Adobe Illustrator 12.0.0, SVG Export Plug-In . SVG Version: 6.00 Build 51448)  -->
<!DOCTYPE svg PUBLIC "-//W3C//DTD SVG 1.1//EN" "http://www.w3.org/Graphics/SVG/1.1/DTD/svg11.dtd" [
	<!ENTITY ns_svg "http://www.w3.org/2000/svg">
	<!ENTITY ns_xlink "http://www.w3.org/1999/xlink">
]>
<svg  version="1.1" id="Layer_1" xmlns="&ns_svg;" xmlns:xlink="&ns_xlink;" width="748.344" height="79.789"
	 viewBox="0 0 748.344 79.789" overflow="visible" enable-background="new 0 0 748.344 79.789" xml:space="preserve">
<g>
	<polygon fill-rule="evenodd" clip-rule="evenodd" fill="#007397" points="372.441,69.906 366.086,43.238 350.936,69.906 
		332.83,69.906 317.5,43.238 311.102,69.906 292.086,69.906 304.574,28.543 325.621,28.543 341.895,56.867 358.172,28.543 
		379.02,28.543 391.555,69.906 372.441,69.906 	"/>
	<path fill-rule="evenodd" clip-rule="evenodd" fill="#007397" d="M229.941,28.543l-28.07,41.363h18.951l4.258-7.133h29.377
		l4.252,7.133h20.91l-28.1-41.363H229.941L229.941,28.543z M229.871,54.742l9.889-16.598l9.9,16.598H229.871L229.871,54.742z"/>
	<path fill-rule="evenodd" clip-rule="evenodd" fill="#007397" d="M596.094,28.543l-28.086,41.363h18.957l4.254-7.133h29.383
		l4.25,7.133h20.914l-28.09-41.363H596.094L596.094,28.543z M596.023,54.742l9.887-16.598l9.902,16.598H596.023L596.023,54.742z"/>
	<polygon fill-rule="evenodd" clip-rule="evenodd" fill="#007397" points="703.867,69.906 681.238,50.359 681.238,69.906 
		661.863,69.906 661.863,28.543 681.238,28.543 681.238,46.688 703.852,28.543 727.355,28.543 701.262,48.336 729.113,69.906 
		703.867,69.906 	"/>
	<path fill-rule="evenodd" clip-rule="evenodd" fill="#007397" d="M532.906,69.906h21.887l-14.488-15.813
		c8.008-1.992,11.367-6.75,11.367-12.156c0-6.344-4.473-9.781-10.879-11.516c-6.641-1.793-15.469-1.879-23.82-1.879
		c-16.078,0-29.629,0-29.629,0v41.363h19.137V57.484h16.59L532.906,69.906L532.906,69.906z M506.48,36.746c0,0,9.051,0,12.129,0
		c9.867,0,13.895,1.906,13.895,6.098c0,3.375-2.676,5.422-6,6.18c-2.473,0.57-4.711,0.68-8.598,0.68c-3.016,0-11.426,0-11.426,0
		V36.746L506.48,36.746z"/>
	<polygon fill-rule="evenodd" clip-rule="evenodd" fill="#007397" points="444.777,38.027 444.777,69.906 425.316,69.906 
		425.316,38.027 400.313,38.027 402.441,28.543 470.137,28.543 468.027,38.027 444.777,38.027 	"/>
	<path fill-rule="evenodd" clip-rule="evenodd" fill="#007397" d="M96.949,64.266c14.814,6.125,30.139,11.758,43.193,15.523
		c15.729-31.266,44.164-56.051,96.57-78.764V0C169.398,18.406,127.275,31.594,96.949,64.266L96.949,64.266z"/>
	<path fill-rule="evenodd" clip-rule="evenodd" fill="#007397" d="M126.93,3.414C112.08,2.715,34.512,0.744,0,15.695
		c9.334,5.514,19.346,11.234,31.1,17.434C65.303,17.127,109.676,11.34,150.484,9.113V8.076
		C142.549,7.107,133.789,5.412,126.93,3.414L126.93,3.414z"/>
	<path fill-rule="evenodd" clip-rule="evenodd" fill="#007397" d="M161.801,9.686C131.182,12.742,76.979,21.619,46.094,40.85
		c11.23,5.65,22.973,11.244,34.705,16.471c32.518-27.723,75.531-40.018,119.363-48.635V7.67
		C189.025,8.98,172.199,9.781,161.801,9.686L161.801,9.686z"/>
	<path fill-rule="evenodd" clip-rule="evenodd" fill="#007397" d="M733.953,35.645c0-3.742,2.816-6.561,6.43-6.561
		c3.559,0,6.375,2.818,6.375,6.561c0,3.775-2.816,6.58-6.375,6.58C736.77,42.225,733.953,39.42,733.953,35.645L733.953,35.645z
		 M740.383,43.531c4.293,0,7.961-3.328,7.961-7.887c0-4.539-3.668-7.871-7.961-7.871c-4.344,0-8.008,3.332-8.008,7.871
		C732.375,40.203,736.039,43.531,740.383,43.531L740.383,43.531z M738.715,36.262h1.598l2.387,3.941h1.531l-2.578-4
		c1.336-0.178,2.348-0.877,2.348-2.502c0-1.799-1.063-2.596-3.203-2.596h-3.453v9.098h1.371V36.262v-1.17v-2.816h1.883
		c0.953,0,1.969,0.205,1.969,1.34c0,1.402-1.027,1.477-2.199,1.477h-1.652V36.262L738.715,36.262z"/>
</g>
</svg>
